<svg xmlns="http://www.w3.org/2000/svg" preserveAspectRatio="none" viewBox="0 0 100 1">
<rect key="0" fill="#2563EB" height="0.5383" width="1" x="0" y="0.4617" /><rect key="1" fill="#2563EB" height="0.6303" width="1" x="1" y="0.3697" /><rect key="2" fill="#2563EB" height="0.5643" width="1" x="2" y="0.4357" /><rect key="3" fill="#2563EB" height="0.6267" width="1" x="3" y="0.3733" /><rect key="4" fill="#2563EB" height="0.6960" width="1" x="4" y="0.3040" /><rect key="5" fill="#2563EB" height="0.6061" width="1" x="5" y="0.3939" /><rect key="6" fill="#2563EB" height="0.5942" width="1" x="6" y="0.4058" /><rect key="7" fill="#2563EB" height="0.5302" width="1" x="7" y="0.4698" /><rect key="8" fill="#2563EB" height="0.6923" width="1" x="8" y="0.3077" /><rect key="9" fill="#2563EB" height="0.6653" width="1" x="9" y="0.3347" /><rect key="10" fill="#2563EB" height="0.5543" width="1" x="10" y="0.4457" /><rect key="11" fill="#2563EB" height="0.6321" width="1" x="11" y="0.3679" /><rect key="12" fill="#2563EB" height="0.7990" width="1" x="12" y="0.2010" /><rect key="13" fill="#2563EB" height="0.7130" width="1" x="13" y="0.2870" /><rect key="14" fill="#2563EB" height="0.9352" width="1" x="14" y="0.0648" /><rect key="15" fill="#2563EB" height="0.9950" width="1" x="15" y="0.0050" /><rect key="16" fill="#2563EB" height="0.8788" width="1" x="16" y="0.1212" /><rect key="17" fill="#2563EB" height="1.0000" width="1" x="17" y="0.0000" /><rect key="18" fill="#2563EB" height="0.7722" width="1" x="18" y="0.2278" /><rect key="19" fill="#2563EB" height="0.8349" width="1" x="19" y="0.1651" /><rect key="20" fill="#2563EB" height="0.7182" width="1" x="20" y="0.2818" /><rect key="21" fill="#2563EB" height="0.8558" width="1" x="21" y="0.1442" /><rect key="22" fill="#2563EB" height="0.9428" width="1" x="22" y="0.0572" /><rect key="23" fill="#2563EB" height="0.9267" width="1" x="23" y="0.0733" /><rect key="24" fill="#2563EB" height="0.8029" width="1" x="24" y="0.1971" /><rect key="25" fill="#2563EB" height="0.8406" width="1" x="25" y="0.1594" /><rect key="26" fill="#2563EB" height="0.8061" width="1" x="26" y="0.1939" /><rect key="27" fill="#2563EB" height="0.9177" width="1" x="27" y="0.0823" /><rect key="28" fill="#2563EB" height="0.7368" width="1" x="28" y="0.2632" /><rect key="29" fill="#2563EB" height="0.7663" width="1" x="29" y="0.2337" /><rect key="30" fill="#2563EB" height="0.7635" width="1" x="30" y="0.2365" /><rect key="31" fill="#2563EB" height="0.7358" width="1" x="31" y="0.2642" /><rect key="32" fill="#2563EB" height="0.6724" width="1" x="32" y="0.3276" /><rect key="33" fill="#2563EB" height="0.6383" width="1" x="33" y="0.3617" /><rect key="34" fill="#2563EB" height="0.6555" width="1" x="34" y="0.3445" /><rect key="35" fill="#2563EB" height="0.8075" width="1" x="35" y="0.1925" /><rect key="36" fill="#2563EB" height="0.7908" width="1" x="36" y="0.2092" /><rect key="37" fill="#2563EB" height="0.7262" width="1" x="37" y="0.2738" /><rect key="38" fill="#2563EB" height="0.7480" width="1" x="38" y="0.2520" /><rect key="39" fill="#2563EB" height="0.7031" width="1" x="39" y="0.2969" /><rect key="40" fill="#2563EB" height="0.6354" width="1" x="40" y="0.3646" /><rect key="41" fill="#2563EB" height="0.6306" width="1" x="41" y="0.3694" /><rect key="42" fill="#2563EB" height="0.7868" width="1" x="42" y="0.2132" /><rect key="43" fill="#2563EB" height="0.7743" width="1" x="43" y="0.2257" /><rect key="44" fill="#2563EB" height="0.8908" width="1" x="44" y="0.1092" /><rect key="45" fill="#2563EB" height="0.7300" width="1" x="45" y="0.2700" /><rect key="46" fill="#2563EB" height="0.6468" width="1" x="46" y="0.3532" /><rect key="47" fill="#2563EB" height="0.6570" width="1" x="47" y="0.3430" /><rect key="48" fill="#2563EB" height="0.7291" width="1" x="48" y="0.2709" /><rect key="49" fill="#2563EB" height="0.7983" width="1" x="49" y="0.2017" /><rect key="50" fill="#2563EB" height="0.8371" width="1" x="50" y="0.1629" /><rect key="51" fill="#2563EB" height="0.7645" width="1" x="51" y="0.2355" /><rect key="52" fill="#2563EB" height="0.7049" width="1" x="52" y="0.2951" /><rect key="53" fill="#2563EB" height="0.6604" width="1" x="53" y="0.3396" /><rect key="54" fill="#2563EB" height="0.7470" width="1" x="54" y="0.2530" /><rect key="55" fill="#2563EB" height="0.8658" width="1" x="55" y="0.1342" /><rect key="56" fill="#2563EB" height="0.7939" width="1" x="56" y="0.2061" /><rect key="57" fill="#2563EB" height="0.8115" width="1" x="57" y="0.1885" /><rect key="58" fill="#2563EB" height="0.9038" width="1" x="58" y="0.0962" /><rect key="59" fill="#2563EB" height="0.7617" width="1" x="59" y="0.2383" /><rect key="60" fill="#2563EB" height="0.6720" width="1" x="60" y="0.3280" /><rect key="61" fill="#2563EB" height="0.7265" width="1" x="61" y="0.2735" /><rect key="62" fill="#2563EB" height="0.7704" width="1" x="62" y="0.2296" /><rect key="63" fill="#2563EB" height="0.8248" width="1" x="63" y="0.1752" /><rect key="64" fill="#2563EB" height="0.8543" width="1" x="64" y="0.1457" /><rect key="65" fill="#2563EB" height="0.7761" width="1" x="65" y="0.2239" /><rect key="66" fill="#2563EB" height="0.7221" width="1" x="66" y="0.2779" /><rect key="67" fill="#2563EB" height="0.8317" width="1" x="67" y="0.1683" /><rect key="68" fill="#2563EB" height="0.7591" width="1" x="68" y="0.2409" /><rect key="69" fill="#2563EB" height="0.5209" width="1" x="69" y="0.4791" /><rect key="70" fill="#2563EB" height="0.6036" width="1" x="70" y="0.3964" /><rect key="71" fill="#2563EB" height="0.5604" width="1" x="71" y="0.4396" /><rect key="72" fill="#2563EB" height="0.6302" width="1" x="72" y="0.3698" /><rect key="73" fill="#2563EB" height="0.5883" width="1" x="73" y="0.4117" /><rect key="74" fill="#2563EB" height="0.5463" width="1" x="74" y="0.4537" /><rect key="75" fill="#2563EB" height="0.5963" width="1" x="75" y="0.4037" /><rect key="76" fill="#2563EB" height="0.5806" width="1" x="76" y="0.4194" /><rect key="77" fill="#2563EB" height="0.6316" width="1" x="77" y="0.3684" /><rect key="78" fill="#2563EB" height="0.5757" width="1" x="78" y="0.4243" /><rect key="79" fill="#2563EB" height="0.5623" width="1" x="79" y="0.4377" /><rect key="80" fill="#2563EB" height="0.6083" width="1" x="80" y="0.3917" /><rect key="81" fill="#2563EB" height="0.5289" width="1" x="81" y="0.4711" /><rect key="82" fill="#2563EB" height="0.6011" width="1" x="82" y="0.3989" /><rect key="83" fill="#2563EB" height="0.6164" width="1" x="83" y="0.3836" /><rect key="84" fill="#2563EB" height="0.6156" width="1" x="84" y="0.3844" /><rect key="85" fill="#2563EB" height="0.6629" width="1" x="85" y="0.3371" /><rect key="86" fill="#2563EB" height="0.6807" width="1" x="86" y="0.3193" /><rect key="87" fill="#2563EB" height="0.6115" width="1" x="87" y="0.3885" /><rect key="88" fill="#2563EB" height="0.5495" width="1" x="88" y="0.4505" /><rect key="89" fill="#2563EB" height="0.6176" width="1" x="89" y="0.3824" /><rect key="90" fill="#2563EB" height="0.6195" width="1" x="90" y="0.3805" /><rect key="91" fill="#2563EB" height="0.6194" width="1" x="91" y="0.3806" /><rect key="92" fill="#2563EB" height="0.6892" width="1" x="92" y="0.3108" /><rect key="93" fill="#2563EB" height="0.6634" width="1" x="93" y="0.3366" /><rect key="94" fill="#2563EB" height="0.5689" width="1" x="94" y="0.4311" /><rect key="95" fill="#2563EB" height="0.6812" width="1" x="95" y="0.3188" /><rect key="96" fill="#2563EB" height="0.6309" width="1" x="96" y="0.3691" /><rect key="97" fill="#2563EB" height="0.3323" width="1" x="97" y="0.6677" /><rect key="98" fill="#2563EB" height="0.4371" width="1" x="98" y="0.5629" /><rect key="99" fill="#2563EB" height="0.4239" width="1" x="99" y="0.5761" />
</svg>