<svg xmlns="http://www.w3.org/2000/svg" preserveAspectRatio="none" viewBox="0 0 100 1">
<rect key="0" fill="#2563EB" height="0.3909" width="1" x="0" y="0.6091" /><rect key="1" fill="#2563EB" height="0.4217" width="1" x="1" y="0.5783" /><rect key="2" fill="#2563EB" height="0.8996" width="1" x="2" y="0.1004" /><rect key="3" fill="#2563EB" height="0.9430" width="1" x="3" y="0.0570" /><rect key="4" fill="#2563EB" height="0.8301" width="1" x="4" y="0.1699" /><rect key="5" fill="#2563EB" height="0.7700" width="1" x="5" y="0.2300" /><rect key="6" fill="#2563EB" height="0.6486" width="1" x="6" y="0.3514" /><rect key="7" fill="#2563EB" height="0.5641" width="1" x="7" y="0.4359" /><rect key="8" fill="#2563EB" height="0.6804" width="1" x="8" y="0.3196" /><rect key="9" fill="#2563EB" height="0.6432" width="1" x="9" y="0.3568" /><rect key="10" fill="#2563EB" height="0.6235" width="1" x="10" y="0.3765" /><rect key="11" fill="#2563EB" height="0.6410" width="1" x="11" y="0.3590" /><rect key="12" fill="#2563EB" height="0.6987" width="1" x="12" y="0.3013" /><rect key="13" fill="#2563EB" height="0.8773" width="1" x="13" y="0.1227" /><rect key="14" fill="#2563EB" height="0.7864" width="1" x="14" y="0.2136" /><rect key="15" fill="#2563EB" height="0.9295" width="1" x="15" y="0.0705" /><rect key="16" fill="#2563EB" height="0.6571" width="1" x="16" y="0.3429" /><rect key="17" fill="#2563EB" height="0.9201" width="1" x="17" y="0.0799" /><rect key="18" fill="#2563EB" height="0.6575" width="1" x="18" y="0.3425" /><rect key="19" fill="#2563EB" height="0.8455" width="1" x="19" y="0.1545" /><rect key="20" fill="#2563EB" height="0.8883" width="1" x="20" y="0.1117" /><rect key="21" fill="#2563EB" height="0.4247" width="1" x="21" y="0.5753" /><rect key="22" fill="#2563EB" height="0.7122" width="1" x="22" y="0.2878" /><rect key="23" fill="#2563EB" height="0.7367" width="1" x="23" y="0.2633" /><rect key="24" fill="#2563EB" height="0.7038" width="1" x="24" y="0.2962" /><rect key="25" fill="#2563EB" height="0.4805" width="1" x="25" y="0.5195" /><rect key="26" fill="#2563EB" height="0.6654" width="1" x="26" y="0.3346" /><rect key="27" fill="#2563EB" height="0.7443" width="1" x="27" y="0.2557" /><rect key="28" fill="#2563EB" height="0.5312" width="1" x="28" y="0.4688" /><rect key="29" fill="#2563EB" height="0.5144" width="1" x="29" y="0.4856" /><rect key="30" fill="#2563EB" height="0.6818" width="1" x="30" y="0.3182" /><rect key="31" fill="#2563EB" height="0.6118" width="1" x="31" y="0.3882" /><rect key="32" fill="#2563EB" height="0.4786" width="1" x="32" y="0.5214" /><rect key="33" fill="#2563EB" height="0.6695" width="1" x="33" y="0.3305" /><rect key="34" fill="#2563EB" height="0.7791" width="1" x="34" y="0.2209" /><rect key="35" fill="#2563EB" height="0.8061" width="1" x="35" y="0.1939" /><rect key="36" fill="#2563EB" height="0.7256" width="1" x="36" y="0.2744" /><rect key="37" fill="#2563EB" height="0.6406" width="1" x="37" y="0.3594" /><rect key="38" fill="#2563EB" height="0.4014" width="1" x="38" y="0.5986" /><rect key="39" fill="#2563EB" height="0.8470" width="1" x="39" y="0.1530" /><rect key="40" fill="#2563EB" height="0.5803" width="1" x="40" y="0.4197" /><rect key="41" fill="#2563EB" height="0.7736" width="1" x="41" y="0.2264" /><rect key="42" fill="#2563EB" height="0.9237" width="1" x="42" y="0.0763" /><rect key="43" fill="#2563EB" height="0.9834" width="1" x="43" y="0.0166" /><rect key="44" fill="#2563EB" height="0.7213" width="1" x="44" y="0.2787" /><rect key="45" fill="#2563EB" height="0.5941" width="1" x="45" y="0.4059" /><rect key="46" fill="#2563EB" height="0.7811" width="1" x="46" y="0.2189" /><rect key="47" fill="#2563EB" height="0.6581" width="1" x="47" y="0.3419" /><rect key="48" fill="#2563EB" height="0.7438" width="1" x="48" y="0.2562" /><rect key="49" fill="#2563EB" height="0.8364" width="1" x="49" y="0.1636" /><rect key="50" fill="#2563EB" height="0.8806" width="1" x="50" y="0.1194" /><rect key="51" fill="#2563EB" height="0.9007" width="1" x="51" y="0.0993" /><rect key="52" fill="#2563EB" height="0.7361" width="1" x="52" y="0.2639" /><rect key="53" fill="#2563EB" height="0.7647" width="1" x="53" y="0.2353" /><rect key="54" fill="#2563EB" height="0.8138" width="1" x="54" y="0.1862" /><rect key="55" fill="#2563EB" height="0.8257" width="1" x="55" y="0.1743" /><rect key="56" fill="#2563EB" height="0.8694" width="1" x="56" y="0.1306" /><rect key="57" fill="#2563EB" height="0.8226" width="1" x="57" y="0.1774" /><rect key="58" fill="#2563EB" height="0.8539" width="1" x="58" y="0.1461" /><rect key="59" fill="#2563EB" height="0.9254" width="1" x="59" y="0.0746" /><rect key="60" fill="#2563EB" height="0.9662" width="1" x="60" y="0.0338" /><rect key="61" fill="#2563EB" height="0.7038" width="1" x="61" y="0.2962" /><rect key="62" fill="#2563EB" height="0.6427" width="1" x="62" y="0.3573" /><rect key="63" fill="#2563EB" height="0.5818" width="1" x="63" y="0.4182" /><rect key="64" fill="#2563EB" height="0.6263" width="1" x="64" y="0.3737" /><rect key="65" fill="#2563EB" height="0.8231" width="1" x="65" y="0.1769" /><rect key="66" fill="#2563EB" height="0.9583" width="1" x="66" y="0.0417" /><rect key="67" fill="#2563EB" height="0.9217" width="1" x="67" y="0.0783" /><rect key="68" fill="#2563EB" height="0.5620" width="1" x="68" y="0.4380" /><rect key="69" fill="#2563EB" height="0.5714" width="1" x="69" y="0.4286" /><rect key="70" fill="#2563EB" height="0.7843" width="1" x="70" y="0.2157" /><rect key="71" fill="#2563EB" height="0.9124" width="1" x="71" y="0.0876" /><rect key="72" fill="#2563EB" height="0.5944" width="1" x="72" y="0.4056" /><rect key="73" fill="#2563EB" height="0.6372" width="1" x="73" y="0.3628" /><rect key="74" fill="#2563EB" height="0.7357" width="1" x="74" y="0.2643" /><rect key="75" fill="#2563EB" height="0.8895" width="1" x="75" y="0.1105" /><rect key="76" fill="#2563EB" height="0.9200" width="1" x="76" y="0.0800" /><rect key="77" fill="#2563EB" height="0.9000" width="1" x="77" y="0.1000" /><rect key="78" fill="#2563EB" height="0.8962" width="1" x="78" y="0.1038" /><rect key="79" fill="#2563EB" height="0.7575" width="1" x="79" y="0.2425" /><rect key="80" fill="#2563EB" height="0.5911" width="1" x="80" y="0.4089" /><rect key="81" fill="#2563EB" height="0.9237" width="1" x="81" y="0.0763" /><rect key="82" fill="#2563EB" height="1.0000" width="1" x="82" y="0.0000" /><rect key="83" fill="#2563EB" height="0.6517" width="1" x="83" y="0.3483" /><rect key="84" fill="#2563EB" height="0.8578" width="1" x="84" y="0.1422" /><rect key="85" fill="#2563EB" height="0.5036" width="1" x="85" y="0.4964" /><rect key="86" fill="#2563EB" height="0.6800" width="1" x="86" y="0.3200" /><rect key="87" fill="#2563EB" height="0.3981" width="1" x="87" y="0.6019" /><rect key="88" fill="#2563EB" height="0.6077" width="1" x="88" y="0.3923" /><rect key="89" fill="#2563EB" height="0.5900" width="1" x="89" y="0.4100" /><rect key="90" fill="#2563EB" height="0.5581" width="1" x="90" y="0.4419" /><rect key="91" fill="#2563EB" height="0.4374" width="1" x="91" y="0.5626" /><rect key="92" fill="#2563EB" height="0.6270" width="1" x="92" y="0.3730" /><rect key="93" fill="#2563EB" height="0.7749" width="1" x="93" y="0.2251" /><rect key="94" fill="#2563EB" height="0.6502" width="1" x="94" y="0.3498" /><rect key="95" fill="#2563EB" height="0.5878" width="1" x="95" y="0.4122" /><rect key="96" fill="#2563EB" height="0.4232" width="1" x="96" y="0.5768" /><rect key="97" fill="#2563EB" height="0.4968" width="1" x="97" y="0.5032" /><rect key="98" fill="#2563EB" height="0.6241" width="1" x="98" y="0.3759" /><rect key="99" fill="#2563EB" height="0.5060" width="1" x="99" y="0.4940" />
</svg>