<svg xmlns="http://www.w3.org/2000/svg" preserveAspectRatio="none" viewBox="0 0 100 1">
<rect key="0" fill="#2563EB" height="0.1961" width="1" x="0" y="0.8039" /><rect key="1" fill="#2563EB" height="0.2488" width="1" x="1" y="0.7512" /><rect key="2" fill="#2563EB" height="0.1846" width="1" x="2" y="0.8154" /><rect key="3" fill="#2563EB" height="0.3785" width="1" x="3" y="0.6215" /><rect key="4" fill="#2563EB" height="0.3787" width="1" x="4" y="0.6213" /><rect key="5" fill="#2563EB" height="0.3692" width="1" x="5" y="0.6308" /><rect key="6" fill="#2563EB" height="0.2090" width="1" x="6" y="0.7910" /><rect key="7" fill="#2563EB" height="0.2688" width="1" x="7" y="0.7312" /><rect key="8" fill="#2563EB" height="0.3094" width="1" x="8" y="0.6906" /><rect key="9" fill="#2563EB" height="0.3252" width="1" x="9" y="0.6748" /><rect key="10" fill="#2563EB" height="0.1933" width="1" x="10" y="0.8067" /><rect key="11" fill="#2563EB" height="0.3278" width="1" x="11" y="0.6722" /><rect key="12" fill="#2563EB" height="0.3814" width="1" x="12" y="0.6186" /><rect key="13" fill="#2563EB" height="0.4266" width="1" x="13" y="0.5734" /><rect key="14" fill="#2563EB" height="0.3475" width="1" x="14" y="0.6525" /><rect key="15" fill="#2563EB" height="0.3874" width="1" x="15" y="0.6126" /><rect key="16" fill="#2563EB" height="0.4078" width="1" x="16" y="0.5922" /><rect key="17" fill="#2563EB" height="0.4618" width="1" x="17" y="0.5382" /><rect key="18" fill="#2563EB" height="0.4291" width="1" x="18" y="0.5709" /><rect key="19" fill="#2563EB" height="0.5900" width="1" x="19" y="0.4100" /><rect key="20" fill="#2563EB" height="0.5139" width="1" x="20" y="0.4861" /><rect key="21" fill="#2563EB" height="0.4557" width="1" x="21" y="0.5443" /><rect key="22" fill="#2563EB" height="0.4573" width="1" x="22" y="0.5427" /><rect key="23" fill="#2563EB" height="0.4849" width="1" x="23" y="0.5151" /><rect key="24" fill="#2563EB" height="0.4552" width="1" x="24" y="0.5448" /><rect key="25" fill="#2563EB" height="0.4796" width="1" x="25" y="0.5204" /><rect key="26" fill="#2563EB" height="0.4266" width="1" x="26" y="0.5734" /><rect key="27" fill="#2563EB" height="0.7122" width="1" x="27" y="0.2878" /><rect key="28" fill="#2563EB" height="0.5567" width="1" x="28" y="0.4433" /><rect key="29" fill="#2563EB" height="0.5569" width="1" x="29" y="0.4431" /><rect key="30" fill="#2563EB" height="0.4160" width="1" x="30" y="0.5840" /><rect key="31" fill="#2563EB" height="0.4833" width="1" x="31" y="0.5167" /><rect key="32" fill="#2563EB" height="0.5182" width="1" x="32" y="0.4818" /><rect key="33" fill="#2563EB" height="0.6099" width="1" x="33" y="0.3901" /><rect key="34" fill="#2563EB" height="0.5889" width="1" x="34" y="0.4111" /><rect key="35" fill="#2563EB" height="0.5988" width="1" x="35" y="0.4012" /><rect key="36" fill="#2563EB" height="0.5627" width="1" x="36" y="0.4373" /><rect key="37" fill="#2563EB" height="0.5516" width="1" x="37" y="0.4484" /><rect key="38" fill="#2563EB" height="0.5101" width="1" x="38" y="0.4899" /><rect key="39" fill="#2563EB" height="0.6508" width="1" x="39" y="0.3492" /><rect key="40" fill="#2563EB" height="0.4715" width="1" x="40" y="0.5285" /><rect key="41" fill="#2563EB" height="0.8712" width="1" x="41" y="0.1288" /><rect key="42" fill="#2563EB" height="0.6429" width="1" x="42" y="0.3571" /><rect key="43" fill="#2563EB" height="0.8529" width="1" x="43" y="0.1471" /><rect key="44" fill="#2563EB" height="0.7610" width="1" x="44" y="0.2390" /><rect key="45" fill="#2563EB" height="0.7107" width="1" x="45" y="0.2893" /><rect key="46" fill="#2563EB" height="0.6219" width="1" x="46" y="0.3781" /><rect key="47" fill="#2563EB" height="0.9222" width="1" x="47" y="0.0778" /><rect key="48" fill="#2563EB" height="0.7031" width="1" x="48" y="0.2969" /><rect key="49" fill="#2563EB" height="0.6901" width="1" x="49" y="0.3099" /><rect key="50" fill="#2563EB" height="0.5516" width="1" x="50" y="0.4484" /><rect key="51" fill="#2563EB" height="0.6541" width="1" x="51" y="0.3459" /><rect key="52" fill="#2563EB" height="0.5420" width="1" x="52" y="0.4580" /><rect key="53" fill="#2563EB" height="0.5602" width="1" x="53" y="0.4398" /><rect key="54" fill="#2563EB" height="0.4929" width="1" x="54" y="0.5071" /><rect key="55" fill="#2563EB" height="0.7626" width="1" x="55" y="0.2374" /><rect key="56" fill="#2563EB" height="0.5221" width="1" x="56" y="0.4779" /><rect key="57" fill="#2563EB" height="1.0000" width="1" x="57" y="0.0000" /><rect key="58" fill="#2563EB" height="0.7360" width="1" x="58" y="0.2640" /><rect key="59" fill="#2563EB" height="0.8498" width="1" x="59" y="0.1502" /><rect key="60" fill="#2563EB" height="0.6370" width="1" x="60" y="0.3630" /><rect key="61" fill="#2563EB" height="0.5866" width="1" x="61" y="0.4134" /><rect key="62" fill="#2563EB" height="0.5608" width="1" x="62" y="0.4392" /><rect key="63" fill="#2563EB" height="0.8924" width="1" x="63" y="0.1076" /><rect key="64" fill="#2563EB" height="0.4826" width="1" x="64" y="0.5174" /><rect key="65" fill="#2563EB" height="0.5217" width="1" x="65" y="0.4783" /><rect key="66" fill="#2563EB" height="0.4743" width="1" x="66" y="0.5257" /><rect key="67" fill="#2563EB" height="0.6769" width="1" x="67" y="0.3231" /><rect key="68" fill="#2563EB" height="0.5728" width="1" x="68" y="0.4272" /><rect key="69" fill="#2563EB" height="0.5203" width="1" x="69" y="0.4797" /><rect key="70" fill="#2563EB" height="0.4326" width="1" x="70" y="0.5674" /><rect key="71" fill="#2563EB" height="0.6140" width="1" x="71" y="0.3860" /><rect key="72" fill="#2563EB" height="0.5222" width="1" x="72" y="0.4778" /><rect key="73" fill="#2563EB" height="0.7265" width="1" x="73" y="0.2735" /><rect key="74" fill="#2563EB" height="0.5916" width="1" x="74" y="0.4084" /><rect key="75" fill="#2563EB" height="0.7306" width="1" x="75" y="0.2694" /><rect key="76" fill="#2563EB" height="0.6209" width="1" x="76" y="0.3791" /><rect key="77" fill="#2563EB" height="0.6578" width="1" x="77" y="0.3422" /><rect key="78" fill="#2563EB" height="0.6018" width="1" x="78" y="0.3982" /><rect key="79" fill="#2563EB" height="0.8895" width="1" x="79" y="0.1105" /><rect key="80" fill="#2563EB" height="0.6621" width="1" x="80" y="0.3379" /><rect key="81" fill="#2563EB" height="0.5512" width="1" x="81" y="0.4488" /><rect key="82" fill="#2563EB" height="0.5079" width="1" x="82" y="0.4921" /><rect key="83" fill="#2563EB" height="0.9555" width="1" x="83" y="0.0445" /><rect key="84" fill="#2563EB" height="0.6750" width="1" x="84" y="0.3250" /><rect key="85" fill="#2563EB" height="0.6220" width="1" x="85" y="0.3780" /><rect key="86" fill="#2563EB" height="0.5846" width="1" x="86" y="0.4154" /><rect key="87" fill="#2563EB" height="0.6652" width="1" x="87" y="0.3348" /><rect key="88" fill="#2563EB" height="0.4787" width="1" x="88" y="0.5213" /><rect key="89" fill="#2563EB" height="0.6759" width="1" x="89" y="0.3241" /><rect key="90" fill="#2563EB" height="0.5978" width="1" x="90" y="0.4022" /><rect key="91" fill="#2563EB" height="0.6815" width="1" x="91" y="0.3185" /><rect key="92" fill="#2563EB" height="0.6845" width="1" x="92" y="0.3155" /><rect key="93" fill="#2563EB" height="0.6194" width="1" x="93" y="0.3806" /><rect key="94" fill="#2563EB" height="0.5157" width="1" x="94" y="0.4843" /><rect key="95" fill="#2563EB" height="0.7665" width="1" x="95" y="0.2335" /><rect key="96" fill="#2563EB" height="0.3892" width="1" x="96" y="0.6108" /><rect key="97" fill="#2563EB" height="0.2234" width="1" x="97" y="0.7766" /><rect key="98" fill="#2563EB" height="0.1647" width="1" x="98" y="0.8353" /><rect key="99" fill="#2563EB" height="0.1708" width="1" x="99" y="0.8292" />
</svg>