<svg xmlns="http://www.w3.org/2000/svg" preserveAspectRatio="none" viewBox="0 0 100 1">
<rect key="0" fill="#2563EB" height="0.3331" width="1" x="0" y="0.6669" /><rect key="1" fill="#2563EB" height="0.3202" width="1" x="1" y="0.6798" /><rect key="2" fill="#2563EB" height="0.3870" width="1" x="2" y="0.6130" /><rect key="3" fill="#2563EB" height="0.4704" width="1" x="3" y="0.5296" /><rect key="4" fill="#2563EB" height="0.5076" width="1" x="4" y="0.4924" /><rect key="5" fill="#2563EB" height="0.6696" width="1" x="5" y="0.3304" /><rect key="6" fill="#2563EB" height="0.7816" width="1" x="6" y="0.2184" /><rect key="7" fill="#2563EB" height="0.6685" width="1" x="7" y="0.3315" /><rect key="8" fill="#2563EB" height="0.5735" width="1" x="8" y="0.4265" /><rect key="9" fill="#2563EB" height="0.5696" width="1" x="9" y="0.4304" /><rect key="10" fill="#2563EB" height="0.7640" width="1" x="10" y="0.2360" /><rect key="11" fill="#2563EB" height="0.7753" width="1" x="11" y="0.2247" /><rect key="12" fill="#2563EB" height="0.6365" width="1" x="12" y="0.3635" /><rect key="13" fill="#2563EB" height="0.5270" width="1" x="13" y="0.4730" /><rect key="14" fill="#2563EB" height="0.5692" width="1" x="14" y="0.4308" /><rect key="15" fill="#2563EB" height="0.6228" width="1" x="15" y="0.3772" /><rect key="16" fill="#2563EB" height="0.5529" width="1" x="16" y="0.4471" /><rect key="17" fill="#2563EB" height="0.5200" width="1" x="17" y="0.4800" /><rect key="18" fill="#2563EB" height="0.5494" width="1" x="18" y="0.4506" /><rect key="19" fill="#2563EB" height="0.4547" width="1" x="19" y="0.5453" /><rect key="20" fill="#2563EB" height="0.4424" width="1" x="20" y="0.5576" /><rect key="21" fill="#2563EB" height="0.5790" width="1" x="21" y="0.4210" /><rect key="22" fill="#2563EB" height="0.5199" width="1" x="22" y="0.4801" /><rect key="23" fill="#2563EB" height="0.5064" width="1" x="23" y="0.4936" /><rect key="24" fill="#2563EB" height="0.5040" width="1" x="24" y="0.4960" /><rect key="25" fill="#2563EB" height="0.4698" width="1" x="25" y="0.5302" /><rect key="26" fill="#2563EB" height="0.6729" width="1" x="26" y="0.3271" /><rect key="27" fill="#2563EB" height="0.6814" width="1" x="27" y="0.3186" /><rect key="28" fill="#2563EB" height="0.6222" width="1" x="28" y="0.3778" /><rect key="29" fill="#2563EB" height="0.5461" width="1" x="29" y="0.4539" /><rect key="30" fill="#2563EB" height="0.4734" width="1" x="30" y="0.5266" /><rect key="31" fill="#2563EB" height="0.7440" width="1" x="31" y="0.2560" /><rect key="32" fill="#2563EB" height="0.7627" width="1" x="32" y="0.2373" /><rect key="33" fill="#2563EB" height="0.6016" width="1" x="33" y="0.3984" /><rect key="34" fill="#2563EB" height="0.5110" width="1" x="34" y="0.4890" /><rect key="35" fill="#2563EB" height="0.6067" width="1" x="35" y="0.3933" /><rect key="36" fill="#2563EB" height="0.6275" width="1" x="36" y="0.3725" /><rect key="37" fill="#2563EB" height="0.5555" width="1" x="37" y="0.4445" /><rect key="38" fill="#2563EB" height="0.4811" width="1" x="38" y="0.5189" /><rect key="39" fill="#2563EB" height="0.4493" width="1" x="39" y="0.5507" /><rect key="40" fill="#2563EB" height="0.4464" width="1" x="40" y="0.5536" /><rect key="41" fill="#2563EB" height="0.4333" width="1" x="41" y="0.5667" /><rect key="42" fill="#2563EB" height="0.5421" width="1" x="42" y="0.4579" /><rect key="43" fill="#2563EB" height="0.4919" width="1" x="43" y="0.5081" /><rect key="44" fill="#2563EB" height="0.4473" width="1" x="44" y="0.5527" /><rect key="45" fill="#2563EB" height="0.4889" width="1" x="45" y="0.5111" /><rect key="46" fill="#2563EB" height="0.5096" width="1" x="46" y="0.4904" /><rect key="47" fill="#2563EB" height="0.7090" width="1" x="47" y="0.2910" /><rect key="48" fill="#2563EB" height="0.6927" width="1" x="48" y="0.3073" /><rect key="49" fill="#2563EB" height="0.6235" width="1" x="49" y="0.3765" /><rect key="50" fill="#2563EB" height="0.5388" width="1" x="50" y="0.4612" /><rect key="51" fill="#2563EB" height="0.4873" width="1" x="51" y="0.5127" /><rect key="52" fill="#2563EB" height="0.7818" width="1" x="52" y="0.2182" /><rect key="53" fill="#2563EB" height="0.7566" width="1" x="53" y="0.2434" /><rect key="54" fill="#2563EB" height="0.5863" width="1" x="54" y="0.4137" /><rect key="55" fill="#2563EB" height="0.5728" width="1" x="55" y="0.4272" /><rect key="56" fill="#2563EB" height="0.6041" width="1" x="56" y="0.3959" /><rect key="57" fill="#2563EB" height="0.6198" width="1" x="57" y="0.3802" /><rect key="58" fill="#2563EB" height="0.5478" width="1" x="58" y="0.4522" /><rect key="59" fill="#2563EB" height="0.5417" width="1" x="59" y="0.4583" /><rect key="60" fill="#2563EB" height="0.5248" width="1" x="60" y="0.4752" /><rect key="61" fill="#2563EB" height="0.4085" width="1" x="61" y="0.5915" /><rect key="62" fill="#2563EB" height="0.4586" width="1" x="62" y="0.5414" /><rect key="63" fill="#2563EB" height="0.5205" width="1" x="63" y="0.4795" /><rect key="64" fill="#2563EB" height="0.4484" width="1" x="64" y="0.5516" /><rect key="65" fill="#2563EB" height="0.4246" width="1" x="65" y="0.5754" /><rect key="66" fill="#2563EB" height="0.5194" width="1" x="66" y="0.4806" /><rect key="67" fill="#2563EB" height="0.5021" width="1" x="67" y="0.4979" /><rect key="68" fill="#2563EB" height="0.7013" width="1" x="68" y="0.2987" /><rect key="69" fill="#2563EB" height="0.7639" width="1" x="69" y="0.2361" /><rect key="70" fill="#2563EB" height="0.6580" width="1" x="70" y="0.3420" /><rect key="71" fill="#2563EB" height="0.5963" width="1" x="71" y="0.4037" /><rect key="72" fill="#2563EB" height="0.7296" width="1" x="72" y="0.2704" /><rect key="73" fill="#2563EB" height="1.0000" width="1" x="73" y="0.0000" /><rect key="74" fill="#2563EB" height="0.9020" width="1" x="74" y="0.0980" /><rect key="75" fill="#2563EB" height="0.6942" width="1" x="75" y="0.3058" /><rect key="76" fill="#2563EB" height="0.6701" width="1" x="76" y="0.3299" /><rect key="77" fill="#2563EB" height="0.5989" width="1" x="77" y="0.4011" /><rect key="78" fill="#2563EB" height="0.5903" width="1" x="78" y="0.4097" /><rect key="79" fill="#2563EB" height="0.5145" width="1" x="79" y="0.4855" /><rect key="80" fill="#2563EB" height="0.4710" width="1" x="80" y="0.5290" /><rect key="81" fill="#2563EB" height="0.4548" width="1" x="81" y="0.5452" /><rect key="82" fill="#2563EB" height="0.3956" width="1" x="82" y="0.6044" /><rect key="83" fill="#2563EB" height="0.4421" width="1" x="83" y="0.5579" /><rect key="84" fill="#2563EB" height="0.5092" width="1" x="84" y="0.4908" /><rect key="85" fill="#2563EB" height="0.5298" width="1" x="85" y="0.4702" /><rect key="86" fill="#2563EB" height="0.4332" width="1" x="86" y="0.5668" /><rect key="87" fill="#2563EB" height="0.4002" width="1" x="87" y="0.5998" /><rect key="88" fill="#2563EB" height="0.3091" width="1" x="88" y="0.6909" /><rect key="89" fill="#2563EB" height="0.5204" width="1" x="89" y="0.4796" /><rect key="90" fill="#2563EB" height="0.4318" width="1" x="90" y="0.5682" /><rect key="91" fill="#2563EB" height="0.3483" width="1" x="91" y="0.6517" /><rect key="92" fill="#2563EB" height="0.3780" width="1" x="92" y="0.6220" /><rect key="93" fill="#2563EB" height="0.4207" width="1" x="93" y="0.5793" /><rect key="94" fill="#2563EB" height="0.4704" width="1" x="94" y="0.5296" /><rect key="95" fill="#2563EB" height="0.4847" width="1" x="95" y="0.5153" /><rect key="96" fill="#2563EB" height="0.4215" width="1" x="96" y="0.5785" /><rect key="97" fill="#2563EB" height="0.4245" width="1" x="97" y="0.5755" /><rect key="98" fill="#2563EB" height="0.3464" width="1" x="98" y="0.6536" /><rect key="99" fill="#2563EB" height="0.3067" width="1" x="99" y="0.6933" />
</svg>