<svg xmlns="http://www.w3.org/2000/svg" preserveAspectRatio="none" viewBox="0 0 100 1">
<rect key="0" fill="#2563EB" height="0.6197" width="1" x="0" y="0.3803" /><rect key="1" fill="#2563EB" height="0.8511" width="1" x="1" y="0.1489" /><rect key="2" fill="#2563EB" height="1.0000" width="1" x="2" y="0.0000" /><rect key="3" fill="#2563EB" height="0.7704" width="1" x="3" y="0.2296" /><rect key="4" fill="#2563EB" height="0.8212" width="1" x="4" y="0.1788" /><rect key="5" fill="#2563EB" height="0.8933" width="1" x="5" y="0.1067" /><rect key="6" fill="#2563EB" height="0.8528" width="1" x="6" y="0.1472" /><rect key="7" fill="#2563EB" height="0.7744" width="1" x="7" y="0.2256" /><rect key="8" fill="#2563EB" height="0.8804" width="1" x="8" y="0.1196" /><rect key="9" fill="#2563EB" height="0.9980" width="1" x="9" y="0.0020" /><rect key="10" fill="#2563EB" height="0.8770" width="1" x="10" y="0.1230" /><rect key="11" fill="#2563EB" height="0.8677" width="1" x="11" y="0.1323" /><rect key="12" fill="#2563EB" height="0.8946" width="1" x="12" y="0.1054" /><rect key="13" fill="#2563EB" height="0.8484" width="1" x="13" y="0.1516" /><rect key="14" fill="#2563EB" height="0.9112" width="1" x="14" y="0.0888" /><rect key="15" fill="#2563EB" height="0.7342" width="1" x="15" y="0.2658" /><rect key="16" fill="#2563EB" height="0.8305" width="1" x="16" y="0.1695" /><rect key="17" fill="#2563EB" height="0.8723" width="1" x="17" y="0.1277" /><rect key="18" fill="#2563EB" height="0.7257" width="1" x="18" y="0.2743" /><rect key="19" fill="#2563EB" height="0.5191" width="1" x="19" y="0.4809" /><rect key="20" fill="#2563EB" height="0.6381" width="1" x="20" y="0.3619" /><rect key="21" fill="#2563EB" height="0.7290" width="1" x="21" y="0.2710" /><rect key="22" fill="#2563EB" height="0.8020" width="1" x="22" y="0.1980" /><rect key="23" fill="#2563EB" height="0.7090" width="1" x="23" y="0.2910" /><rect key="24" fill="#2563EB" height="0.8549" width="1" x="24" y="0.1451" /><rect key="25" fill="#2563EB" height="0.8890" width="1" x="25" y="0.1110" /><rect key="26" fill="#2563EB" height="0.8626" width="1" x="26" y="0.1374" /><rect key="27" fill="#2563EB" height="0.7656" width="1" x="27" y="0.2344" /><rect key="28" fill="#2563EB" height="0.9108" width="1" x="28" y="0.0892" /><rect key="29" fill="#2563EB" height="0.8195" width="1" x="29" y="0.1805" /><rect key="30" fill="#2563EB" height="0.7914" width="1" x="30" y="0.2086" /><rect key="31" fill="#2563EB" height="0.6667" width="1" x="31" y="0.3333" /><rect key="32" fill="#2563EB" height="0.9058" width="1" x="32" y="0.0942" /><rect key="33" fill="#2563EB" height="0.8035" width="1" x="33" y="0.1965" /><rect key="34" fill="#2563EB" height="0.7398" width="1" x="34" y="0.2602" /><rect key="35" fill="#2563EB" height="0.7830" width="1" x="35" y="0.2170" /><rect key="36" fill="#2563EB" height="0.7202" width="1" x="36" y="0.2798" /><rect key="37" fill="#2563EB" height="0.7508" width="1" x="37" y="0.2492" /><rect key="38" fill="#2563EB" height="0.6280" width="1" x="38" y="0.3720" /><rect key="39" fill="#2563EB" height="0.7411" width="1" x="39" y="0.2589" /><rect key="40" fill="#2563EB" height="0.8094" width="1" x="40" y="0.1906" /><rect key="41" fill="#2563EB" height="0.7665" width="1" x="41" y="0.2335" /><rect key="42" fill="#2563EB" height="0.9391" width="1" x="42" y="0.0609" /><rect key="43" fill="#2563EB" height="0.9397" width="1" x="43" y="0.0603" /><rect key="44" fill="#2563EB" height="0.6969" width="1" x="44" y="0.3031" /><rect key="45" fill="#2563EB" height="0.8205" width="1" x="45" y="0.1795" /><rect key="46" fill="#2563EB" height="0.8112" width="1" x="46" y="0.1888" /><rect key="47" fill="#2563EB" height="0.6374" width="1" x="47" y="0.3626" /><rect key="48" fill="#2563EB" height="0.6726" width="1" x="48" y="0.3274" /><rect key="49" fill="#2563EB" height="0.6848" width="1" x="49" y="0.3152" /><rect key="50" fill="#2563EB" height="0.8167" width="1" x="50" y="0.1833" /><rect key="51" fill="#2563EB" height="0.8141" width="1" x="51" y="0.1859" /><rect key="52" fill="#2563EB" height="0.8157" width="1" x="52" y="0.1843" /><rect key="53" fill="#2563EB" height="0.8919" width="1" x="53" y="0.1081" /><rect key="54" fill="#2563EB" height="0.8795" width="1" x="54" y="0.1205" /><rect key="55" fill="#2563EB" height="0.9359" width="1" x="55" y="0.0641" /><rect key="56" fill="#2563EB" height="0.7297" width="1" x="56" y="0.2703" /><rect key="57" fill="#2563EB" height="0.9128" width="1" x="57" y="0.0872" /><rect key="58" fill="#2563EB" height="0.8238" width="1" x="58" y="0.1762" /><rect key="59" fill="#2563EB" height="0.8534" width="1" x="59" y="0.1466" /><rect key="60" fill="#2563EB" height="0.7556" width="1" x="60" y="0.2444" /><rect key="61" fill="#2563EB" height="0.8810" width="1" x="61" y="0.1190" /><rect key="62" fill="#2563EB" height="0.6805" width="1" x="62" y="0.3195" /><rect key="63" fill="#2563EB" height="0.8396" width="1" x="63" y="0.1604" /><rect key="64" fill="#2563EB" height="0.7131" width="1" x="64" y="0.2869" /><rect key="65" fill="#2563EB" height="0.9597" width="1" x="65" y="0.0403" /><rect key="66" fill="#2563EB" height="0.7421" width="1" x="66" y="0.2579" /><rect key="67" fill="#2563EB" height="0.6518" width="1" x="67" y="0.3482" /><rect key="68" fill="#2563EB" height="0.6021" width="1" x="68" y="0.3979" /><rect key="69" fill="#2563EB" height="0.7332" width="1" x="69" y="0.2668" /><rect key="70" fill="#2563EB" height="0.7712" width="1" x="70" y="0.2288" /><rect key="71" fill="#2563EB" height="0.6764" width="1" x="71" y="0.3236" /><rect key="72" fill="#2563EB" height="0.7482" width="1" x="72" y="0.2518" /><rect key="73" fill="#2563EB" height="0.8655" width="1" x="73" y="0.1345" /><rect key="74" fill="#2563EB" height="0.7271" width="1" x="74" y="0.2729" /><rect key="75" fill="#2563EB" height="0.8356" width="1" x="75" y="0.1644" /><rect key="76" fill="#2563EB" height="0.9203" width="1" x="76" y="0.0797" /><rect key="77" fill="#2563EB" height="0.8031" width="1" x="77" y="0.1969" /><rect key="78" fill="#2563EB" height="0.8243" width="1" x="78" y="0.1757" /><rect key="79" fill="#2563EB" height="0.8720" width="1" x="79" y="0.1280" /><rect key="80" fill="#2563EB" height="0.9181" width="1" x="80" y="0.0819" /><rect key="81" fill="#2563EB" height="0.9050" width="1" x="81" y="0.0950" /><rect key="82" fill="#2563EB" height="0.7715" width="1" x="82" y="0.2285" /><rect key="83" fill="#2563EB" height="0.8074" width="1" x="83" y="0.1926" /><rect key="84" fill="#2563EB" height="0.6560" width="1" x="84" y="0.3440" /><rect key="85" fill="#2563EB" height="0.6169" width="1" x="85" y="0.3831" /><rect key="86" fill="#2563EB" height="0.6617" width="1" x="86" y="0.3383" /><rect key="87" fill="#2563EB" height="0.6644" width="1" x="87" y="0.3356" /><rect key="88" fill="#2563EB" height="0.6488" width="1" x="88" y="0.3512" /><rect key="89" fill="#2563EB" height="0.6451" width="1" x="89" y="0.3549" /><rect key="90" fill="#2563EB" height="0.7816" width="1" x="90" y="0.2184" /><rect key="91" fill="#2563EB" height="0.9723" width="1" x="91" y="0.0277" /><rect key="92" fill="#2563EB" height="0.8244" width="1" x="92" y="0.1756" /><rect key="93" fill="#2563EB" height="0.7188" width="1" x="93" y="0.2812" /><rect key="94" fill="#2563EB" height="0.8124" width="1" x="94" y="0.1876" /><rect key="95" fill="#2563EB" height="0.7642" width="1" x="95" y="0.2358" /><rect key="96" fill="#2563EB" height="0.8650" width="1" x="96" y="0.1350" /><rect key="97" fill="#2563EB" height="0.6158" width="1" x="97" y="0.3842" /><rect key="98" fill="#2563EB" height="0.7468" width="1" x="98" y="0.2532" /><rect key="99" fill="#2563EB" height="0.4930" width="1" x="99" y="0.5070" />
</svg>