<svg xmlns="http://www.w3.org/2000/svg" preserveAspectRatio="none" viewBox="0 0 100 1">
<rect key="0" fill="#2563EB" height="0.4410" width="1" x="0" y="0.5590" /><rect key="1" fill="#2563EB" height="0.7281" width="1" x="1" y="0.2719" /><rect key="2" fill="#2563EB" height="0.7007" width="1" x="2" y="0.2993" /><rect key="3" fill="#2563EB" height="0.5536" width="1" x="3" y="0.4464" /><rect key="4" fill="#2563EB" height="0.5943" width="1" x="4" y="0.4057" /><rect key="5" fill="#2563EB" height="0.5073" width="1" x="5" y="0.4927" /><rect key="6" fill="#2563EB" height="0.4591" width="1" x="6" y="0.5409" /><rect key="7" fill="#2563EB" height="0.6565" width="1" x="7" y="0.3435" /><rect key="8" fill="#2563EB" height="0.5484" width="1" x="8" y="0.4516" /><rect key="9" fill="#2563EB" height="0.6251" width="1" x="9" y="0.3749" /><rect key="10" fill="#2563EB" height="0.6305" width="1" x="10" y="0.3695" /><rect key="11" fill="#2563EB" height="0.4326" width="1" x="11" y="0.5674" /><rect key="12" fill="#2563EB" height="0.6742" width="1" x="12" y="0.3258" /><rect key="13" fill="#2563EB" height="0.7154" width="1" x="13" y="0.2846" /><rect key="14" fill="#2563EB" height="0.4964" width="1" x="14" y="0.5036" /><rect key="15" fill="#2563EB" height="0.6345" width="1" x="15" y="0.3655" /><rect key="16" fill="#2563EB" height="0.5226" width="1" x="16" y="0.4774" /><rect key="17" fill="#2563EB" height="0.6517" width="1" x="17" y="0.3483" /><rect key="18" fill="#2563EB" height="0.5739" width="1" x="18" y="0.4261" /><rect key="19" fill="#2563EB" height="0.4909" width="1" x="19" y="0.5091" /><rect key="20" fill="#2563EB" height="0.6612" width="1" x="20" y="0.3388" /><rect key="21" fill="#2563EB" height="0.6265" width="1" x="21" y="0.3735" /><rect key="22" fill="#2563EB" height="0.7031" width="1" x="22" y="0.2969" /><rect key="23" fill="#2563EB" height="0.6857" width="1" x="23" y="0.3143" /><rect key="24" fill="#2563EB" height="0.5393" width="1" x="24" y="0.4607" /><rect key="25" fill="#2563EB" height="0.5190" width="1" x="25" y="0.4810" /><rect key="26" fill="#2563EB" height="0.9267" width="1" x="26" y="0.0733" /><rect key="27" fill="#2563EB" height="0.7526" width="1" x="27" y="0.2474" /><rect key="28" fill="#2563EB" height="0.8134" width="1" x="28" y="0.1866" /><rect key="29" fill="#2563EB" height="0.9075" width="1" x="29" y="0.0925" /><rect key="30" fill="#2563EB" height="0.6628" width="1" x="30" y="0.3372" /><rect key="31" fill="#2563EB" height="0.7394" width="1" x="31" y="0.2606" /><rect key="32" fill="#2563EB" height="0.8184" width="1" x="32" y="0.1816" /><rect key="33" fill="#2563EB" height="0.6356" width="1" x="33" y="0.3644" /><rect key="34" fill="#2563EB" height="0.8860" width="1" x="34" y="0.1140" /><rect key="35" fill="#2563EB" height="0.6972" width="1" x="35" y="0.3028" /><rect key="36" fill="#2563EB" height="0.7869" width="1" x="36" y="0.2131" /><rect key="37" fill="#2563EB" height="0.8489" width="1" x="37" y="0.1511" /><rect key="38" fill="#2563EB" height="0.6189" width="1" x="38" y="0.3811" /><rect key="39" fill="#2563EB" height="0.7548" width="1" x="39" y="0.2452" /><rect key="40" fill="#2563EB" height="0.9470" width="1" x="40" y="0.0530" /><rect key="41" fill="#2563EB" height="0.6397" width="1" x="41" y="0.3603" /><rect key="42" fill="#2563EB" height="0.7860" width="1" x="42" y="0.2140" /><rect key="43" fill="#2563EB" height="0.7003" width="1" x="43" y="0.2997" /><rect key="44" fill="#2563EB" height="0.7154" width="1" x="44" y="0.2846" /><rect key="45" fill="#2563EB" height="0.8803" width="1" x="45" y="0.1197" /><rect key="46" fill="#2563EB" height="0.6766" width="1" x="46" y="0.3234" /><rect key="47" fill="#2563EB" height="0.8293" width="1" x="47" y="0.1707" /><rect key="48" fill="#2563EB" height="0.8257" width="1" x="48" y="0.1743" /><rect key="49" fill="#2563EB" height="0.6784" width="1" x="49" y="0.3216" /><rect key="50" fill="#2563EB" height="0.8434" width="1" x="50" y="0.1566" /><rect key="51" fill="#2563EB" height="0.7272" width="1" x="51" y="0.2728" /><rect key="52" fill="#2563EB" height="0.7959" width="1" x="52" y="0.2041" /><rect key="53" fill="#2563EB" height="0.9512" width="1" x="53" y="0.0488" /><rect key="54" fill="#2563EB" height="0.6093" width="1" x="54" y="0.3907" /><rect key="55" fill="#2563EB" height="0.8039" width="1" x="55" y="0.1961" /><rect key="56" fill="#2563EB" height="0.8274" width="1" x="56" y="0.1726" /><rect key="57" fill="#2563EB" height="0.5800" width="1" x="57" y="0.4200" /><rect key="58" fill="#2563EB" height="0.7541" width="1" x="58" y="0.2459" /><rect key="59" fill="#2563EB" height="0.8323" width="1" x="59" y="0.1677" /><rect key="60" fill="#2563EB" height="0.7221" width="1" x="60" y="0.2779" /><rect key="61" fill="#2563EB" height="0.8367" width="1" x="61" y="0.1633" /><rect key="62" fill="#2563EB" height="0.6532" width="1" x="62" y="0.3468" /><rect key="63" fill="#2563EB" height="0.7698" width="1" x="63" y="0.2302" /><rect key="64" fill="#2563EB" height="1.0000" width="1" x="64" y="0.0000" /><rect key="65" fill="#2563EB" height="0.7356" width="1" x="65" y="0.2644" /><rect key="66" fill="#2563EB" height="0.8243" width="1" x="66" y="0.1757" /><rect key="67" fill="#2563EB" height="0.8167" width="1" x="67" y="0.1833" /><rect key="68" fill="#2563EB" height="0.8130" width="1" x="68" y="0.1870" /><rect key="69" fill="#2563EB" height="0.7811" width="1" x="69" y="0.2189" /><rect key="70" fill="#2563EB" height="0.6624" width="1" x="70" y="0.3376" /><rect key="71" fill="#2563EB" height="0.8112" width="1" x="71" y="0.1888" /><rect key="72" fill="#2563EB" height="0.8974" width="1" x="72" y="0.1026" /><rect key="73" fill="#2563EB" height="0.7716" width="1" x="73" y="0.2284" /><rect key="74" fill="#2563EB" height="0.8496" width="1" x="74" y="0.1504" /><rect key="75" fill="#2563EB" height="0.8673" width="1" x="75" y="0.1327" /><rect key="76" fill="#2563EB" height="0.6216" width="1" x="76" y="0.3784" /><rect key="77" fill="#2563EB" height="0.8822" width="1" x="77" y="0.1178" /><rect key="78" fill="#2563EB" height="0.8844" width="1" x="78" y="0.1156" /><rect key="79" fill="#2563EB" height="0.7415" width="1" x="79" y="0.2585" /><rect key="80" fill="#2563EB" height="0.9744" width="1" x="80" y="0.0256" /><rect key="81" fill="#2563EB" height="0.6642" width="1" x="81" y="0.3358" /><rect key="82" fill="#2563EB" height="0.8376" width="1" x="82" y="0.1624" /><rect key="83" fill="#2563EB" height="0.8379" width="1" x="83" y="0.1621" /><rect key="84" fill="#2563EB" height="0.7197" width="1" x="84" y="0.2803" /><rect key="85" fill="#2563EB" height="0.8555" width="1" x="85" y="0.1445" /><rect key="86" fill="#2563EB" height="0.9514" width="1" x="86" y="0.0486" /><rect key="87" fill="#2563EB" height="0.7465" width="1" x="87" y="0.2535" /><rect key="88" fill="#2563EB" height="0.8015" width="1" x="88" y="0.1985" /><rect key="89" fill="#2563EB" height="0.7973" width="1" x="89" y="0.2027" /><rect key="90" fill="#2563EB" height="0.7788" width="1" x="90" y="0.2212" /><rect key="91" fill="#2563EB" height="0.8189" width="1" x="91" y="0.1811" /><rect key="92" fill="#2563EB" height="0.7343" width="1" x="92" y="0.2657" /><rect key="93" fill="#2563EB" height="0.8374" width="1" x="93" y="0.1626" /><rect key="94" fill="#2563EB" height="0.8421" width="1" x="94" y="0.1579" /><rect key="95" fill="#2563EB" height="0.7409" width="1" x="95" y="0.2591" /><rect key="96" fill="#2563EB" height="0.8945" width="1" x="96" y="0.1055" /><rect key="97" fill="#2563EB" height="0.6773" width="1" x="97" y="0.3227" /><rect key="98" fill="#2563EB" height="0.4633" width="1" x="98" y="0.5367" /><rect key="99" fill="#2563EB" height="0.5391" width="1" x="99" y="0.4609" />
</svg>