<svg xmlns="http://www.w3.org/2000/svg" preserveAspectRatio="none" viewBox="0 0 100 1">
<rect key="0" fill="#2563EB" height="0.6423" width="1" x="0" y="0.3577" /><rect key="1" fill="#2563EB" height="0.7396" width="1" x="1" y="0.2604" /><rect key="2" fill="#2563EB" height="0.8391" width="1" x="2" y="0.1609" /><rect key="3" fill="#2563EB" height="0.8633" width="1" x="3" y="0.1367" /><rect key="4" fill="#2563EB" height="0.8529" width="1" x="4" y="0.1471" /><rect key="5" fill="#2563EB" height="1.0000" width="1" x="5" y="0.0000" /><rect key="6" fill="#2563EB" height="0.7833" width="1" x="6" y="0.2167" /><rect key="7" fill="#2563EB" height="0.6967" width="1" x="7" y="0.3033" /><rect key="8" fill="#2563EB" height="0.6904" width="1" x="8" y="0.3096" /><rect key="9" fill="#2563EB" height="0.7315" width="1" x="9" y="0.2685" /><rect key="10" fill="#2563EB" height="0.6978" width="1" x="10" y="0.3022" /><rect key="11" fill="#2563EB" height="0.7924" width="1" x="11" y="0.2076" /><rect key="12" fill="#2563EB" height="0.9249" width="1" x="12" y="0.0751" /><rect key="13" fill="#2563EB" height="0.7775" width="1" x="13" y="0.2225" /><rect key="14" fill="#2563EB" height="0.7150" width="1" x="14" y="0.2850" /><rect key="15" fill="#2563EB" height="0.7060" width="1" x="15" y="0.2940" /><rect key="16" fill="#2563EB" height="0.7302" width="1" x="16" y="0.2698" /><rect key="17" fill="#2563EB" height="0.7022" width="1" x="17" y="0.2978" /><rect key="18" fill="#2563EB" height="0.7786" width="1" x="18" y="0.2214" /><rect key="19" fill="#2563EB" height="0.6684" width="1" x="19" y="0.3316" /><rect key="20" fill="#2563EB" height="0.6776" width="1" x="20" y="0.3224" /><rect key="21" fill="#2563EB" height="0.8041" width="1" x="21" y="0.1959" /><rect key="22" fill="#2563EB" height="0.8619" width="1" x="22" y="0.1381" /><rect key="23" fill="#2563EB" height="0.9181" width="1" x="23" y="0.0819" /><rect key="24" fill="#2563EB" height="0.7240" width="1" x="24" y="0.2760" /><rect key="25" fill="#2563EB" height="0.7353" width="1" x="25" y="0.2647" /><rect key="26" fill="#2563EB" height="0.7469" width="1" x="26" y="0.2531" /><rect key="27" fill="#2563EB" height="0.8220" width="1" x="27" y="0.1780" /><rect key="28" fill="#2563EB" height="0.9072" width="1" x="28" y="0.0928" /><rect key="29" fill="#2563EB" height="0.8461" width="1" x="29" y="0.1539" /><rect key="30" fill="#2563EB" height="0.7871" width="1" x="30" y="0.2129" /><rect key="31" fill="#2563EB" height="0.7663" width="1" x="31" y="0.2337" /><rect key="32" fill="#2563EB" height="0.7954" width="1" x="32" y="0.2046" /><rect key="33" fill="#2563EB" height="0.8795" width="1" x="33" y="0.1205" /><rect key="34" fill="#2563EB" height="0.8374" width="1" x="34" y="0.1626" /><rect key="35" fill="#2563EB" height="0.7947" width="1" x="35" y="0.2053" /><rect key="36" fill="#2563EB" height="0.7439" width="1" x="36" y="0.2561" /><rect key="37" fill="#2563EB" height="0.7950" width="1" x="37" y="0.2050" /><rect key="38" fill="#2563EB" height="0.9093" width="1" x="38" y="0.0907" /><rect key="39" fill="#2563EB" height="0.8102" width="1" x="39" y="0.1898" /><rect key="40" fill="#2563EB" height="0.8717" width="1" x="40" y="0.1283" /><rect key="41" fill="#2563EB" height="0.8021" width="1" x="41" y="0.1979" /><rect key="42" fill="#2563EB" height="0.7296" width="1" x="42" y="0.2704" /><rect key="43" fill="#2563EB" height="0.8157" width="1" x="43" y="0.1843" /><rect key="44" fill="#2563EB" height="0.9373" width="1" x="44" y="0.0627" /><rect key="45" fill="#2563EB" height="0.7111" width="1" x="45" y="0.2889" /><rect key="46" fill="#2563EB" height="0.6205" width="1" x="46" y="0.3795" /><rect key="47" fill="#2563EB" height="0.6779" width="1" x="47" y="0.3221" /><rect key="48" fill="#2563EB" height="0.7361" width="1" x="48" y="0.2639" /><rect key="49" fill="#2563EB" height="0.8145" width="1" x="49" y="0.1855" /><rect key="50" fill="#2563EB" height="0.6370" width="1" x="50" y="0.3630" /><rect key="51" fill="#2563EB" height="0.5476" width="1" x="51" y="0.4524" /><rect key="52" fill="#2563EB" height="0.5871" width="1" x="52" y="0.4129" /><rect key="53" fill="#2563EB" height="0.6671" width="1" x="53" y="0.3329" /><rect key="54" fill="#2563EB" height="0.7166" width="1" x="54" y="0.2834" /><rect key="55" fill="#2563EB" height="0.6011" width="1" x="55" y="0.3989" /><rect key="56" fill="#2563EB" height="0.5851" width="1" x="56" y="0.4149" /><rect key="57" fill="#2563EB" height="0.5019" width="1" x="57" y="0.4981" /><rect key="58" fill="#2563EB" height="0.5965" width="1" x="58" y="0.4035" /><rect key="59" fill="#2563EB" height="0.6911" width="1" x="59" y="0.3089" /><rect key="60" fill="#2563EB" height="0.6297" width="1" x="60" y="0.3703" /><rect key="61" fill="#2563EB" height="0.5592" width="1" x="61" y="0.4408" /><rect key="62" fill="#2563EB" height="0.5290" width="1" x="62" y="0.4710" /><rect key="63" fill="#2563EB" height="0.6279" width="1" x="63" y="0.3721" /><rect key="64" fill="#2563EB" height="0.7473" width="1" x="64" y="0.2527" /><rect key="65" fill="#2563EB" height="0.6063" width="1" x="65" y="0.3937" /><rect key="66" fill="#2563EB" height="0.5942" width="1" x="66" y="0.4058" /><rect key="67" fill="#2563EB" height="0.5690" width="1" x="67" y="0.4310" /><rect key="68" fill="#2563EB" height="0.6240" width="1" x="68" y="0.3760" /><rect key="69" fill="#2563EB" height="0.7382" width="1" x="69" y="0.2618" /><rect key="70" fill="#2563EB" height="0.7021" width="1" x="70" y="0.2979" /><rect key="71" fill="#2563EB" height="0.5806" width="1" x="71" y="0.4194" /><rect key="72" fill="#2563EB" height="0.5445" width="1" x="72" y="0.4555" /><rect key="73" fill="#2563EB" height="0.6169" width="1" x="73" y="0.3831" /><rect key="74" fill="#2563EB" height="0.5685" width="1" x="74" y="0.4315" /><rect key="75" fill="#2563EB" height="0.7318" width="1" x="75" y="0.2682" /><rect key="76" fill="#2563EB" height="0.6058" width="1" x="76" y="0.3942" /><rect key="77" fill="#2563EB" height="0.5264" width="1" x="77" y="0.4736" /><rect key="78" fill="#2563EB" height="0.5728" width="1" x="78" y="0.4272" /><rect key="79" fill="#2563EB" height="0.6129" width="1" x="79" y="0.3871" /><rect key="80" fill="#2563EB" height="0.6931" width="1" x="80" y="0.3069" /><rect key="81" fill="#2563EB" height="0.7512" width="1" x="81" y="0.2488" /><rect key="82" fill="#2563EB" height="0.7470" width="1" x="82" y="0.2530" /><rect key="83" fill="#2563EB" height="0.8068" width="1" x="83" y="0.1932" /><rect key="84" fill="#2563EB" height="0.6822" width="1" x="84" y="0.3178" /><rect key="85" fill="#2563EB" height="0.6496" width="1" x="85" y="0.3504" /><rect key="86" fill="#2563EB" height="0.7046" width="1" x="86" y="0.2954" /><rect key="87" fill="#2563EB" height="0.6713" width="1" x="87" y="0.3287" /><rect key="88" fill="#2563EB" height="0.5278" width="1" x="88" y="0.4722" /><rect key="89" fill="#2563EB" height="0.5128" width="1" x="89" y="0.4872" /><rect key="90" fill="#2563EB" height="0.7733" width="1" x="90" y="0.2267" /><rect key="91" fill="#2563EB" height="0.9165" width="1" x="91" y="0.0835" /><rect key="92" fill="#2563EB" height="0.7920" width="1" x="92" y="0.2080" /><rect key="93" fill="#2563EB" height="0.8477" width="1" x="93" y="0.1523" /><rect key="94" fill="#2563EB" height="0.4686" width="1" x="94" y="0.5314" /><rect key="95" fill="#2563EB" height="0.4195" width="1" x="95" y="0.5805" /><rect key="96" fill="#2563EB" height="0.4866" width="1" x="96" y="0.5134" /><rect key="97" fill="#2563EB" height="0.4161" width="1" x="97" y="0.5839" /><rect key="98" fill="#2563EB" height="0.3294" width="1" x="98" y="0.6706" /><rect key="99" fill="#2563EB" height="0.3498" width="1" x="99" y="0.6502" />
</svg>