<svg xmlns="http://www.w3.org/2000/svg" preserveAspectRatio="none" viewBox="0 0 100 1">
<rect key="0" fill="#2563EB" height="0.5535" width="1" x="0" y="0.4465" /><rect key="1" fill="#2563EB" height="0.6041" width="1" x="1" y="0.3959" /><rect key="2" fill="#2563EB" height="0.5924" width="1" x="2" y="0.4076" /><rect key="3" fill="#2563EB" height="0.7184" width="1" x="3" y="0.2816" /><rect key="4" fill="#2563EB" height="0.6017" width="1" x="4" y="0.3983" /><rect key="5" fill="#2563EB" height="0.5755" width="1" x="5" y="0.4245" /><rect key="6" fill="#2563EB" height="0.5769" width="1" x="6" y="0.4231" /><rect key="7" fill="#2563EB" height="0.6907" width="1" x="7" y="0.3093" /><rect key="8" fill="#2563EB" height="0.6862" width="1" x="8" y="0.3138" /><rect key="9" fill="#2563EB" height="0.5836" width="1" x="9" y="0.4164" /><rect key="10" fill="#2563EB" height="0.7107" width="1" x="10" y="0.2893" /><rect key="11" fill="#2563EB" height="0.8891" width="1" x="11" y="0.1109" /><rect key="12" fill="#2563EB" height="0.6167" width="1" x="12" y="0.3833" /><rect key="13" fill="#2563EB" height="0.6495" width="1" x="13" y="0.3505" /><rect key="14" fill="#2563EB" height="0.5866" width="1" x="14" y="0.4134" /><rect key="15" fill="#2563EB" height="0.8188" width="1" x="15" y="0.1812" /><rect key="16" fill="#2563EB" height="0.5827" width="1" x="16" y="0.4173" /><rect key="17" fill="#2563EB" height="0.6340" width="1" x="17" y="0.3660" /><rect key="18" fill="#2563EB" height="0.6197" width="1" x="18" y="0.3803" /><rect key="19" fill="#2563EB" height="0.7338" width="1" x="19" y="0.2662" /><rect key="20" fill="#2563EB" height="0.5612" width="1" x="20" y="0.4388" /><rect key="21" fill="#2563EB" height="0.5769" width="1" x="21" y="0.4231" /><rect key="22" fill="#2563EB" height="0.6629" width="1" x="22" y="0.3371" /><rect key="23" fill="#2563EB" height="0.7245" width="1" x="23" y="0.2755" /><rect key="24" fill="#2563EB" height="0.6081" width="1" x="24" y="0.3919" /><rect key="25" fill="#2563EB" height="0.6552" width="1" x="25" y="0.3448" /><rect key="26" fill="#2563EB" height="0.7549" width="1" x="26" y="0.2451" /><rect key="27" fill="#2563EB" height="0.8344" width="1" x="27" y="0.1656" /><rect key="28" fill="#2563EB" height="0.5709" width="1" x="28" y="0.4291" /><rect key="29" fill="#2563EB" height="0.6146" width="1" x="29" y="0.3854" /><rect key="30" fill="#2563EB" height="0.5861" width="1" x="30" y="0.4139" /><rect key="31" fill="#2563EB" height="0.6583" width="1" x="31" y="0.3417" /><rect key="32" fill="#2563EB" height="0.5496" width="1" x="32" y="0.4504" /><rect key="33" fill="#2563EB" height="0.6011" width="1" x="33" y="0.3989" /><rect key="34" fill="#2563EB" height="0.5754" width="1" x="34" y="0.4246" /><rect key="35" fill="#2563EB" height="0.6409" width="1" x="35" y="0.3591" /><rect key="36" fill="#2563EB" height="0.6393" width="1" x="36" y="0.3607" /><rect key="37" fill="#2563EB" height="0.6458" width="1" x="37" y="0.3542" /><rect key="38" fill="#2563EB" height="0.5789" width="1" x="38" y="0.4211" /><rect key="39" fill="#2563EB" height="0.7016" width="1" x="39" y="0.2984" /><rect key="40" fill="#2563EB" height="0.6216" width="1" x="40" y="0.3784" /><rect key="41" fill="#2563EB" height="0.6500" width="1" x="41" y="0.3500" /><rect key="42" fill="#2563EB" height="0.6163" width="1" x="42" y="0.3837" /><rect key="43" fill="#2563EB" height="0.7506" width="1" x="43" y="0.2494" /><rect key="44" fill="#2563EB" height="0.5349" width="1" x="44" y="0.4651" /><rect key="45" fill="#2563EB" height="0.6076" width="1" x="45" y="0.3924" /><rect key="46" fill="#2563EB" height="0.7665" width="1" x="46" y="0.2335" /><rect key="47" fill="#2563EB" height="1.0000" width="1" x="47" y="0.0000" /><rect key="48" fill="#2563EB" height="0.5908" width="1" x="48" y="0.4092" /><rect key="49" fill="#2563EB" height="0.6010" width="1" x="49" y="0.3990" /><rect key="50" fill="#2563EB" height="0.6321" width="1" x="50" y="0.3679" /><rect key="51" fill="#2563EB" height="0.6984" width="1" x="51" y="0.3016" /><rect key="52" fill="#2563EB" height="0.5954" width="1" x="52" y="0.4046" /><rect key="53" fill="#2563EB" height="0.6930" width="1" x="53" y="0.3070" /><rect key="54" fill="#2563EB" height="0.6375" width="1" x="54" y="0.3625" /><rect key="55" fill="#2563EB" height="0.6485" width="1" x="55" y="0.3515" /><rect key="56" fill="#2563EB" height="0.5731" width="1" x="56" y="0.4269" /><rect key="57" fill="#2563EB" height="0.5441" width="1" x="57" y="0.4559" /><rect key="58" fill="#2563EB" height="0.6085" width="1" x="58" y="0.3915" /><rect key="59" fill="#2563EB" height="0.7100" width="1" x="59" y="0.2900" /><rect key="60" fill="#2563EB" height="0.5425" width="1" x="60" y="0.4575" /><rect key="61" fill="#2563EB" height="0.6165" width="1" x="61" y="0.3835" /><rect key="62" fill="#2563EB" height="0.6681" width="1" x="62" y="0.3319" /><rect key="63" fill="#2563EB" height="0.7350" width="1" x="63" y="0.2650" /><rect key="64" fill="#2563EB" height="0.6028" width="1" x="64" y="0.3972" /><rect key="65" fill="#2563EB" height="0.6796" width="1" x="65" y="0.3204" /><rect key="66" fill="#2563EB" height="0.9891" width="1" x="66" y="0.0109" /><rect key="67" fill="#2563EB" height="0.8521" width="1" x="67" y="0.1479" /><rect key="68" fill="#2563EB" height="0.5813" width="1" x="68" y="0.4187" /><rect key="69" fill="#2563EB" height="0.5853" width="1" x="69" y="0.4147" /><rect key="70" fill="#2563EB" height="0.5315" width="1" x="70" y="0.4685" /><rect key="71" fill="#2563EB" height="0.6059" width="1" x="71" y="0.3941" /><rect key="72" fill="#2563EB" height="0.6109" width="1" x="72" y="0.3891" /><rect key="73" fill="#2563EB" height="0.5979" width="1" x="73" y="0.4021" /><rect key="74" fill="#2563EB" height="0.5692" width="1" x="74" y="0.4308" /><rect key="75" fill="#2563EB" height="0.7407" width="1" x="75" y="0.2593" /><rect key="76" fill="#2563EB" height="0.9889" width="1" x="76" y="0.0111" /><rect key="77" fill="#2563EB" height="0.8453" width="1" x="77" y="0.1547" /><rect key="78" fill="#2563EB" height="0.6639" width="1" x="78" y="0.3361" /><rect key="79" fill="#2563EB" height="0.7837" width="1" x="79" y="0.2163" /><rect key="80" fill="#2563EB" height="0.6795" width="1" x="80" y="0.3205" /><rect key="81" fill="#2563EB" height="0.6568" width="1" x="81" y="0.3432" /><rect key="82" fill="#2563EB" height="0.6133" width="1" x="82" y="0.3867" /><rect key="83" fill="#2563EB" height="0.6923" width="1" x="83" y="0.3077" /><rect key="84" fill="#2563EB" height="0.7112" width="1" x="84" y="0.2888" /><rect key="85" fill="#2563EB" height="0.6664" width="1" x="85" y="0.3336" /><rect key="86" fill="#2563EB" height="0.6537" width="1" x="86" y="0.3463" /><rect key="87" fill="#2563EB" height="0.7766" width="1" x="87" y="0.2234" /><rect key="88" fill="#2563EB" height="0.6094" width="1" x="88" y="0.3906" /><rect key="89" fill="#2563EB" height="0.6511" width="1" x="89" y="0.3489" /><rect key="90" fill="#2563EB" height="0.7422" width="1" x="90" y="0.2578" /><rect key="91" fill="#2563EB" height="0.7733" width="1" x="91" y="0.2267" /><rect key="92" fill="#2563EB" height="0.5733" width="1" x="92" y="0.4267" /><rect key="93" fill="#2563EB" height="0.5917" width="1" x="93" y="0.4083" /><rect key="94" fill="#2563EB" height="0.5582" width="1" x="94" y="0.4418" /><rect key="95" fill="#2563EB" height="0.4626" width="1" x="95" y="0.5374" /><rect key="96" fill="#2563EB" height="0.2875" width="1" x="96" y="0.7125" /><rect key="97" fill="#2563EB" height="0.3102" width="1" x="97" y="0.6898" /><rect key="98" fill="#2563EB" height="0.3066" width="1" x="98" y="0.6934" /><rect key="99" fill="#2563EB" height="0.3167" width="1" x="99" y="0.6833" />
</svg>