<svg xmlns="http://www.w3.org/2000/svg" preserveAspectRatio="none" viewBox="0 0 100 1">
<rect key="0" fill="#2563EB" height="0.4605" width="1" x="0" y="0.5395" /><rect key="1" fill="#2563EB" height="0.5211" width="1" x="1" y="0.4789" /><rect key="2" fill="#2563EB" height="0.5395" width="1" x="2" y="0.4605" /><rect key="3" fill="#2563EB" height="0.5339" width="1" x="3" y="0.4661" /><rect key="4" fill="#2563EB" height="0.5663" width="1" x="4" y="0.4337" /><rect key="5" fill="#2563EB" height="0.5919" width="1" x="5" y="0.4081" /><rect key="6" fill="#2563EB" height="0.5325" width="1" x="6" y="0.4675" /><rect key="7" fill="#2563EB" height="0.5597" width="1" x="7" y="0.4403" /><rect key="8" fill="#2563EB" height="0.5710" width="1" x="8" y="0.4290" /><rect key="9" fill="#2563EB" height="0.5802" width="1" x="9" y="0.4198" /><rect key="10" fill="#2563EB" height="0.6134" width="1" x="10" y="0.3866" /><rect key="11" fill="#2563EB" height="0.5322" width="1" x="11" y="0.4678" /><rect key="12" fill="#2563EB" height="0.6310" width="1" x="12" y="0.3690" /><rect key="13" fill="#2563EB" height="0.5733" width="1" x="13" y="0.4267" /><rect key="14" fill="#2563EB" height="0.6728" width="1" x="14" y="0.3272" /><rect key="15" fill="#2563EB" height="0.6752" width="1" x="15" y="0.3248" /><rect key="16" fill="#2563EB" height="0.6517" width="1" x="16" y="0.3483" /><rect key="17" fill="#2563EB" height="0.6258" width="1" x="17" y="0.3742" /><rect key="18" fill="#2563EB" height="0.6643" width="1" x="18" y="0.3357" /><rect key="19" fill="#2563EB" height="0.7110" width="1" x="19" y="0.2890" /><rect key="20" fill="#2563EB" height="0.8479" width="1" x="20" y="0.1521" /><rect key="21" fill="#2563EB" height="0.8766" width="1" x="21" y="0.1234" /><rect key="22" fill="#2563EB" height="0.7786" width="1" x="22" y="0.2214" /><rect key="23" fill="#2563EB" height="0.8103" width="1" x="23" y="0.1897" /><rect key="24" fill="#2563EB" height="0.9020" width="1" x="24" y="0.0980" /><rect key="25" fill="#2563EB" height="0.7791" width="1" x="25" y="0.2209" /><rect key="26" fill="#2563EB" height="0.8511" width="1" x="26" y="0.1489" /><rect key="27" fill="#2563EB" height="0.8192" width="1" x="27" y="0.1808" /><rect key="28" fill="#2563EB" height="0.8373" width="1" x="28" y="0.1627" /><rect key="29" fill="#2563EB" height="0.8845" width="1" x="29" y="0.1155" /><rect key="30" fill="#2563EB" height="0.7809" width="1" x="30" y="0.2191" /><rect key="31" fill="#2563EB" height="0.8357" width="1" x="31" y="0.1643" /><rect key="32" fill="#2563EB" height="0.8118" width="1" x="32" y="0.1882" /><rect key="33" fill="#2563EB" height="0.8489" width="1" x="33" y="0.1511" /><rect key="34" fill="#2563EB" height="0.8271" width="1" x="34" y="0.1729" /><rect key="35" fill="#2563EB" height="0.8110" width="1" x="35" y="0.1890" /><rect key="36" fill="#2563EB" height="0.8404" width="1" x="36" y="0.1596" /><rect key="37" fill="#2563EB" height="0.8012" width="1" x="37" y="0.1988" /><rect key="38" fill="#2563EB" height="0.8326" width="1" x="38" y="0.1674" /><rect key="39" fill="#2563EB" height="0.7979" width="1" x="39" y="0.2021" /><rect key="40" fill="#2563EB" height="0.7579" width="1" x="40" y="0.2421" /><rect key="41" fill="#2563EB" height="0.8237" width="1" x="41" y="0.1763" /><rect key="42" fill="#2563EB" height="0.8228" width="1" x="42" y="0.1772" /><rect key="43" fill="#2563EB" height="0.7840" width="1" x="43" y="0.2160" /><rect key="44" fill="#2563EB" height="0.7846" width="1" x="44" y="0.2154" /><rect key="45" fill="#2563EB" height="0.7964" width="1" x="45" y="0.2036" /><rect key="46" fill="#2563EB" height="0.8937" width="1" x="46" y="0.1063" /><rect key="47" fill="#2563EB" height="0.9028" width="1" x="47" y="0.0972" /><rect key="48" fill="#2563EB" height="0.9129" width="1" x="48" y="0.0871" /><rect key="49" fill="#2563EB" height="0.8923" width="1" x="49" y="0.1077" /><rect key="50" fill="#2563EB" height="0.8630" width="1" x="50" y="0.1370" /><rect key="51" fill="#2563EB" height="0.9124" width="1" x="51" y="0.0876" /><rect key="52" fill="#2563EB" height="0.9198" width="1" x="52" y="0.0802" /><rect key="53" fill="#2563EB" height="0.8011" width="1" x="53" y="0.1989" /><rect key="54" fill="#2563EB" height="0.7995" width="1" x="54" y="0.2005" /><rect key="55" fill="#2563EB" height="0.8940" width="1" x="55" y="0.1060" /><rect key="56" fill="#2563EB" height="0.8627" width="1" x="56" y="0.1373" /><rect key="57" fill="#2563EB" height="0.8071" width="1" x="57" y="0.1929" /><rect key="58" fill="#2563EB" height="0.9393" width="1" x="58" y="0.0607" /><rect key="59" fill="#2563EB" height="0.8883" width="1" x="59" y="0.1117" /><rect key="60" fill="#2563EB" height="0.7631" width="1" x="60" y="0.2369" /><rect key="61" fill="#2563EB" height="0.7783" width="1" x="61" y="0.2217" /><rect key="62" fill="#2563EB" height="0.7891" width="1" x="62" y="0.2109" /><rect key="63" fill="#2563EB" height="0.7994" width="1" x="63" y="0.2006" /><rect key="64" fill="#2563EB" height="0.7484" width="1" x="64" y="0.2516" /><rect key="65" fill="#2563EB" height="0.8210" width="1" x="65" y="0.1790" /><rect key="66" fill="#2563EB" height="0.8330" width="1" x="66" y="0.1670" /><rect key="67" fill="#2563EB" height="0.8416" width="1" x="67" y="0.1584" /><rect key="68" fill="#2563EB" height="0.9610" width="1" x="68" y="0.0390" /><rect key="69" fill="#2563EB" height="0.8936" width="1" x="69" y="0.1064" /><rect key="70" fill="#2563EB" height="1.0000" width="1" x="70" y="0.0000" /><rect key="71" fill="#2563EB" height="0.8969" width="1" x="71" y="0.1031" /><rect key="72" fill="#2563EB" height="0.9632" width="1" x="72" y="0.0368" /><rect key="73" fill="#2563EB" height="0.9967" width="1" x="73" y="0.0033" /><rect key="74" fill="#2563EB" height="0.9827" width="1" x="74" y="0.0173" /><rect key="75" fill="#2563EB" height="0.9294" width="1" x="75" y="0.0706" /><rect key="76" fill="#2563EB" height="0.8521" width="1" x="76" y="0.1479" /><rect key="77" fill="#2563EB" height="0.9068" width="1" x="77" y="0.0932" /><rect key="78" fill="#2563EB" height="0.9421" width="1" x="78" y="0.0579" /><rect key="79" fill="#2563EB" height="0.7912" width="1" x="79" y="0.2088" /><rect key="80" fill="#2563EB" height="0.7990" width="1" x="80" y="0.2010" /><rect key="81" fill="#2563EB" height="0.8704" width="1" x="81" y="0.1296" /><rect key="82" fill="#2563EB" height="0.8781" width="1" x="82" y="0.1219" /><rect key="83" fill="#2563EB" height="0.8528" width="1" x="83" y="0.1472" /><rect key="84" fill="#2563EB" height="0.8299" width="1" x="84" y="0.1701" /><rect key="85" fill="#2563EB" height="0.8372" width="1" x="85" y="0.1628" /><rect key="86" fill="#2563EB" height="0.8625" width="1" x="86" y="0.1375" /><rect key="87" fill="#2563EB" height="0.8506" width="1" x="87" y="0.1494" /><rect key="88" fill="#2563EB" height="0.8565" width="1" x="88" y="0.1435" /><rect key="89" fill="#2563EB" height="0.9174" width="1" x="89" y="0.0826" /><rect key="90" fill="#2563EB" height="0.6555" width="1" x="90" y="0.3445" /><rect key="91" fill="#2563EB" height="0.5406" width="1" x="91" y="0.4594" /><rect key="92" fill="#2563EB" height="0.5483" width="1" x="92" y="0.4517" /><rect key="93" fill="#2563EB" height="0.5159" width="1" x="93" y="0.4841" /><rect key="94" fill="#2563EB" height="0.3904" width="1" x="94" y="0.6096" /><rect key="95" fill="#2563EB" height="0.4861" width="1" x="95" y="0.5139" /><rect key="96" fill="#2563EB" height="0.3764" width="1" x="96" y="0.6236" /><rect key="97" fill="#2563EB" height="0.4528" width="1" x="97" y="0.5472" /><rect key="98" fill="#2563EB" height="0.5034" width="1" x="98" y="0.4966" /><rect key="99" fill="#2563EB" height="0.4752" width="1" x="99" y="0.5248" />
</svg>