<svg xmlns="http://www.w3.org/2000/svg" preserveAspectRatio="none" viewBox="0 0 100 1">
<rect key="0" fill="#2563EB" height="0.6115" width="1" x="0" y="0.3885" /><rect key="1" fill="#2563EB" height="0.9901" width="1" x="1" y="0.0099" /><rect key="2" fill="#2563EB" height="0.7118" width="1" x="2" y="0.2882" /><rect key="3" fill="#2563EB" height="0.5576" width="1" x="3" y="0.4424" /><rect key="4" fill="#2563EB" height="0.5470" width="1" x="4" y="0.4530" /><rect key="5" fill="#2563EB" height="0.5751" width="1" x="5" y="0.4249" /><rect key="6" fill="#2563EB" height="0.7111" width="1" x="6" y="0.2889" /><rect key="7" fill="#2563EB" height="0.4749" width="1" x="7" y="0.5251" /><rect key="8" fill="#2563EB" height="0.4203" width="1" x="8" y="0.5797" /><rect key="9" fill="#2563EB" height="0.4190" width="1" x="9" y="0.5810" /><rect key="10" fill="#2563EB" height="0.4036" width="1" x="10" y="0.5964" /><rect key="11" fill="#2563EB" height="0.4430" width="1" x="11" y="0.5570" /><rect key="12" fill="#2563EB" height="0.6494" width="1" x="12" y="0.3506" /><rect key="13" fill="#2563EB" height="0.8651" width="1" x="13" y="0.1349" /><rect key="14" fill="#2563EB" height="0.9631" width="1" x="14" y="0.0369" /><rect key="15" fill="#2563EB" height="0.8662" width="1" x="15" y="0.1338" /><rect key="16" fill="#2563EB" height="0.6963" width="1" x="16" y="0.3037" /><rect key="17" fill="#2563EB" height="0.6843" width="1" x="17" y="0.3157" /><rect key="18" fill="#2563EB" height="0.6279" width="1" x="18" y="0.3721" /><rect key="19" fill="#2563EB" height="0.7885" width="1" x="19" y="0.2115" /><rect key="20" fill="#2563EB" height="0.6444" width="1" x="20" y="0.3556" /><rect key="21" fill="#2563EB" height="0.4989" width="1" x="21" y="0.5011" /><rect key="22" fill="#2563EB" height="0.4662" width="1" x="22" y="0.5338" /><rect key="23" fill="#2563EB" height="0.4422" width="1" x="23" y="0.5578" /><rect key="24" fill="#2563EB" height="0.4035" width="1" x="24" y="0.5965" /><rect key="25" fill="#2563EB" height="0.8136" width="1" x="25" y="0.1864" /><rect key="26" fill="#2563EB" height="0.7799" width="1" x="26" y="0.2201" /><rect key="27" fill="#2563EB" height="0.8265" width="1" x="27" y="0.1735" /><rect key="28" fill="#2563EB" height="0.6356" width="1" x="28" y="0.3644" /><rect key="29" fill="#2563EB" height="0.5493" width="1" x="29" y="0.4507" /><rect key="30" fill="#2563EB" height="0.8333" width="1" x="30" y="0.1667" /><rect key="31" fill="#2563EB" height="0.7678" width="1" x="31" y="0.2322" /><rect key="32" fill="#2563EB" height="0.5079" width="1" x="32" y="0.4921" /><rect key="33" fill="#2563EB" height="0.4439" width="1" x="33" y="0.5561" /><rect key="34" fill="#2563EB" height="0.7550" width="1" x="34" y="0.2450" /><rect key="35" fill="#2563EB" height="0.6431" width="1" x="35" y="0.3569" /><rect key="36" fill="#2563EB" height="0.4655" width="1" x="36" y="0.5345" /><rect key="37" fill="#2563EB" height="0.4590" width="1" x="37" y="0.5410" /><rect key="38" fill="#2563EB" height="0.7443" width="1" x="38" y="0.2557" /><rect key="39" fill="#2563EB" height="0.8553" width="1" x="39" y="0.1447" /><rect key="40" fill="#2563EB" height="0.5497" width="1" x="40" y="0.4503" /><rect key="41" fill="#2563EB" height="0.5891" width="1" x="41" y="0.4109" /><rect key="42" fill="#2563EB" height="0.5528" width="1" x="42" y="0.4472" /><rect key="43" fill="#2563EB" height="0.4846" width="1" x="43" y="0.5154" /><rect key="44" fill="#2563EB" height="0.6805" width="1" x="44" y="0.3195" /><rect key="45" fill="#2563EB" height="0.4847" width="1" x="45" y="0.5153" /><rect key="46" fill="#2563EB" height="0.3181" width="1" x="46" y="0.6819" /><rect key="47" fill="#2563EB" height="0.3414" width="1" x="47" y="0.6586" /><rect key="48" fill="#2563EB" height="0.4807" width="1" x="48" y="0.5193" /><rect key="49" fill="#2563EB" height="0.4317" width="1" x="49" y="0.5683" /><rect key="50" fill="#2563EB" height="0.5871" width="1" x="50" y="0.4129" /><rect key="51" fill="#2563EB" height="0.7515" width="1" x="51" y="0.2485" /><rect key="52" fill="#2563EB" height="0.9546" width="1" x="52" y="0.0454" /><rect key="53" fill="#2563EB" height="0.9355" width="1" x="53" y="0.0645" /><rect key="54" fill="#2563EB" height="0.6185" width="1" x="54" y="0.3815" /><rect key="55" fill="#2563EB" height="0.6494" width="1" x="55" y="0.3506" /><rect key="56" fill="#2563EB" height="0.6064" width="1" x="56" y="0.3936" /><rect key="57" fill="#2563EB" height="0.7604" width="1" x="57" y="0.2396" /><rect key="58" fill="#2563EB" height="0.6634" width="1" x="58" y="0.3366" /><rect key="59" fill="#2563EB" height="0.4933" width="1" x="59" y="0.5067" /><rect key="60" fill="#2563EB" height="0.7148" width="1" x="60" y="0.2852" /><rect key="61" fill="#2563EB" height="0.8002" width="1" x="61" y="0.1998" /><rect key="62" fill="#2563EB" height="0.6121" width="1" x="62" y="0.3879" /><rect key="63" fill="#2563EB" height="0.6530" width="1" x="63" y="0.3470" /><rect key="64" fill="#2563EB" height="0.8217" width="1" x="64" y="0.1783" /><rect key="65" fill="#2563EB" height="0.7892" width="1" x="65" y="0.2108" /><rect key="66" fill="#2563EB" height="0.7336" width="1" x="66" y="0.2664" /><rect key="67" fill="#2563EB" height="0.6106" width="1" x="67" y="0.3894" /><rect key="68" fill="#2563EB" height="0.4955" width="1" x="68" y="0.5045" /><rect key="69" fill="#2563EB" height="0.6215" width="1" x="69" y="0.3785" /><rect key="70" fill="#2563EB" height="0.6427" width="1" x="70" y="0.3573" /><rect key="71" fill="#2563EB" height="0.5092" width="1" x="71" y="0.4908" /><rect key="72" fill="#2563EB" height="0.5621" width="1" x="72" y="0.4379" /><rect key="73" fill="#2563EB" height="0.4506" width="1" x="73" y="0.5494" /><rect key="74" fill="#2563EB" height="0.4861" width="1" x="74" y="0.5139" /><rect key="75" fill="#2563EB" height="0.6363" width="1" x="75" y="0.3637" /><rect key="76" fill="#2563EB" height="0.8804" width="1" x="76" y="0.1196" /><rect key="77" fill="#2563EB" height="0.7697" width="1" x="77" y="0.2303" /><rect key="78" fill="#2563EB" height="0.5169" width="1" x="78" y="0.4831" /><rect key="79" fill="#2563EB" height="0.4375" width="1" x="79" y="0.5625" /><rect key="80" fill="#2563EB" height="0.6268" width="1" x="80" y="0.3732" /><rect key="81" fill="#2563EB" height="1.0000" width="1" x="81" y="0.0000" /><rect key="82" fill="#2563EB" height="0.6493" width="1" x="82" y="0.3507" /><rect key="83" fill="#2563EB" height="0.5984" width="1" x="83" y="0.4016" /><rect key="84" fill="#2563EB" height="0.5211" width="1" x="84" y="0.4789" /><rect key="85" fill="#2563EB" height="0.7426" width="1" x="85" y="0.2574" /><rect key="86" fill="#2563EB" height="0.5668" width="1" x="86" y="0.4332" /><rect key="87" fill="#2563EB" height="0.5147" width="1" x="87" y="0.4853" /><rect key="88" fill="#2563EB" height="0.7208" width="1" x="88" y="0.2792" /><rect key="89" fill="#2563EB" height="0.6092" width="1" x="89" y="0.3908" /><rect key="90" fill="#2563EB" height="0.4891" width="1" x="90" y="0.5109" /><rect key="91" fill="#2563EB" height="0.6201" width="1" x="91" y="0.3799" /><rect key="92" fill="#2563EB" height="0.6676" width="1" x="92" y="0.3324" /><rect key="93" fill="#2563EB" height="0.6675" width="1" x="93" y="0.3325" /><rect key="94" fill="#2563EB" height="0.8006" width="1" x="94" y="0.1994" /><rect key="95" fill="#2563EB" height="0.7978" width="1" x="95" y="0.2022" /><rect key="96" fill="#2563EB" height="0.4194" width="1" x="96" y="0.5806" /><rect key="97" fill="#2563EB" height="0.3010" width="1" x="97" y="0.6990" /><rect key="98" fill="#2563EB" height="0.6653" width="1" x="98" y="0.3347" /><rect key="99" fill="#2563EB" height="0.4222" width="1" x="99" y="0.5778" />
</svg>