<svg xmlns="http://www.w3.org/2000/svg" preserveAspectRatio="none" viewBox="0 0 100 1">
<rect key="0" fill="#2563EB" height="0.9393" width="1" x="0" y="0.0607" /><rect key="1" fill="#2563EB" height="0.9541" width="1" x="1" y="0.0459" /><rect key="2" fill="#2563EB" height="0.8896" width="1" x="2" y="0.1104" /><rect key="3" fill="#2563EB" height="0.9317" width="1" x="3" y="0.0683" /><rect key="4" fill="#2563EB" height="0.8693" width="1" x="4" y="0.1307" /><rect key="5" fill="#2563EB" height="0.8139" width="1" x="5" y="0.1861" /><rect key="6" fill="#2563EB" height="0.8604" width="1" x="6" y="0.1396" /><rect key="7" fill="#2563EB" height="0.8300" width="1" x="7" y="0.1700" /><rect key="8" fill="#2563EB" height="0.6896" width="1" x="8" y="0.3104" /><rect key="9" fill="#2563EB" height="0.8720" width="1" x="9" y="0.1280" /><rect key="10" fill="#2563EB" height="0.7893" width="1" x="10" y="0.2107" /><rect key="11" fill="#2563EB" height="0.8303" width="1" x="11" y="0.1697" /><rect key="12" fill="#2563EB" height="0.8464" width="1" x="12" y="0.1536" /><rect key="13" fill="#2563EB" height="0.8619" width="1" x="13" y="0.1381" /><rect key="14" fill="#2563EB" height="0.8052" width="1" x="14" y="0.1948" /><rect key="15" fill="#2563EB" height="0.8497" width="1" x="15" y="0.1503" /><rect key="16" fill="#2563EB" height="0.7172" width="1" x="16" y="0.2828" /><rect key="17" fill="#2563EB" height="0.8216" width="1" x="17" y="0.1784" /><rect key="18" fill="#2563EB" height="0.7749" width="1" x="18" y="0.2251" /><rect key="19" fill="#2563EB" height="0.6160" width="1" x="19" y="0.3840" /><rect key="20" fill="#2563EB" height="0.7101" width="1" x="20" y="0.2899" /><rect key="21" fill="#2563EB" height="0.6857" width="1" x="21" y="0.3143" /><rect key="22" fill="#2563EB" height="0.8496" width="1" x="22" y="0.1504" /><rect key="23" fill="#2563EB" height="0.9119" width="1" x="23" y="0.0881" /><rect key="24" fill="#2563EB" height="0.8164" width="1" x="24" y="0.1836" /><rect key="25" fill="#2563EB" height="0.6779" width="1" x="25" y="0.3221" /><rect key="26" fill="#2563EB" height="0.9518" width="1" x="26" y="0.0482" /><rect key="27" fill="#2563EB" height="0.8595" width="1" x="27" y="0.1405" /><rect key="28" fill="#2563EB" height="0.9670" width="1" x="28" y="0.0330" /><rect key="29" fill="#2563EB" height="0.9540" width="1" x="29" y="0.0460" /><rect key="30" fill="#2563EB" height="0.8108" width="1" x="30" y="0.1892" /><rect key="31" fill="#2563EB" height="0.7369" width="1" x="31" y="0.2631" /><rect key="32" fill="#2563EB" height="0.8592" width="1" x="32" y="0.1408" /><rect key="33" fill="#2563EB" height="0.8156" width="1" x="33" y="0.1844" /><rect key="34" fill="#2563EB" height="0.8306" width="1" x="34" y="0.1694" /><rect key="35" fill="#2563EB" height="0.8811" width="1" x="35" y="0.1189" /><rect key="36" fill="#2563EB" height="0.8506" width="1" x="36" y="0.1494" /><rect key="37" fill="#2563EB" height="0.8648" width="1" x="37" y="0.1352" /><rect key="38" fill="#2563EB" height="0.8273" width="1" x="38" y="0.1727" /><rect key="39" fill="#2563EB" height="0.5908" width="1" x="39" y="0.4092" /><rect key="40" fill="#2563EB" height="0.7683" width="1" x="40" y="0.2317" /><rect key="41" fill="#2563EB" height="0.8264" width="1" x="41" y="0.1736" /><rect key="42" fill="#2563EB" height="0.6234" width="1" x="42" y="0.3766" /><rect key="43" fill="#2563EB" height="0.8166" width="1" x="43" y="0.1834" /><rect key="44" fill="#2563EB" height="0.8356" width="1" x="44" y="0.1644" /><rect key="45" fill="#2563EB" height="0.6060" width="1" x="45" y="0.3940" /><rect key="46" fill="#2563EB" height="0.8658" width="1" x="46" y="0.1342" /><rect key="47" fill="#2563EB" height="0.8569" width="1" x="47" y="0.1431" /><rect key="48" fill="#2563EB" height="0.7483" width="1" x="48" y="0.2517" /><rect key="49" fill="#2563EB" height="0.8731" width="1" x="49" y="0.1269" /><rect key="50" fill="#2563EB" height="0.9049" width="1" x="50" y="0.0951" /><rect key="51" fill="#2563EB" height="0.8443" width="1" x="51" y="0.1557" /><rect key="52" fill="#2563EB" height="0.8788" width="1" x="52" y="0.1212" /><rect key="53" fill="#2563EB" height="0.7741" width="1" x="53" y="0.2259" /><rect key="54" fill="#2563EB" height="0.8302" width="1" x="54" y="0.1698" /><rect key="55" fill="#2563EB" height="0.8839" width="1" x="55" y="0.1161" /><rect key="56" fill="#2563EB" height="0.8281" width="1" x="56" y="0.1719" /><rect key="57" fill="#2563EB" height="0.6543" width="1" x="57" y="0.3457" /><rect key="58" fill="#2563EB" height="0.7612" width="1" x="58" y="0.2388" /><rect key="59" fill="#2563EB" height="0.4974" width="1" x="59" y="0.5026" /><rect key="60" fill="#2563EB" height="0.9013" width="1" x="60" y="0.0987" /><rect key="61" fill="#2563EB" height="0.9798" width="1" x="61" y="0.0202" /><rect key="62" fill="#2563EB" height="0.9770" width="1" x="62" y="0.0230" /><rect key="63" fill="#2563EB" height="0.9857" width="1" x="63" y="0.0143" /><rect key="64" fill="#2563EB" height="1.0000" width="1" x="64" y="0.0000" /><rect key="65" fill="#2563EB" height="0.7678" width="1" x="65" y="0.2322" /><rect key="66" fill="#2563EB" height="0.9093" width="1" x="66" y="0.0907" /><rect key="67" fill="#2563EB" height="0.8170" width="1" x="67" y="0.1830" /><rect key="68" fill="#2563EB" height="0.5785" width="1" x="68" y="0.4215" /><rect key="69" fill="#2563EB" height="0.6463" width="1" x="69" y="0.3537" /><rect key="70" fill="#2563EB" height="0.7898" width="1" x="70" y="0.2102" /><rect key="71" fill="#2563EB" height="0.7640" width="1" x="71" y="0.2360" /><rect key="72" fill="#2563EB" height="0.7137" width="1" x="72" y="0.2863" /><rect key="73" fill="#2563EB" height="0.7372" width="1" x="73" y="0.2628" /><rect key="74" fill="#2563EB" height="0.8003" width="1" x="74" y="0.1997" /><rect key="75" fill="#2563EB" height="0.8069" width="1" x="75" y="0.1931" /><rect key="76" fill="#2563EB" height="0.8212" width="1" x="76" y="0.1788" /><rect key="77" fill="#2563EB" height="0.9376" width="1" x="77" y="0.0624" /><rect key="78" fill="#2563EB" height="0.7844" width="1" x="78" y="0.2156" /><rect key="79" fill="#2563EB" height="0.7963" width="1" x="79" y="0.2037" /><rect key="80" fill="#2563EB" height="0.8153" width="1" x="80" y="0.1847" /><rect key="81" fill="#2563EB" height="0.8121" width="1" x="81" y="0.1879" /><rect key="82" fill="#2563EB" height="0.6726" width="1" x="82" y="0.3274" /><rect key="83" fill="#2563EB" height="0.8931" width="1" x="83" y="0.1069" /><rect key="84" fill="#2563EB" height="0.7269" width="1" x="84" y="0.2731" /><rect key="85" fill="#2563EB" height="0.7945" width="1" x="85" y="0.2055" /><rect key="86" fill="#2563EB" height="0.9759" width="1" x="86" y="0.0241" /><rect key="87" fill="#2563EB" height="0.8601" width="1" x="87" y="0.1399" /><rect key="88" fill="#2563EB" height="0.7617" width="1" x="88" y="0.2383" /><rect key="89" fill="#2563EB" height="0.8676" width="1" x="89" y="0.1324" /><rect key="90" fill="#2563EB" height="0.7912" width="1" x="90" y="0.2088" /><rect key="91" fill="#2563EB" height="0.6218" width="1" x="91" y="0.3782" /><rect key="92" fill="#2563EB" height="0.8476" width="1" x="92" y="0.1524" /><rect key="93" fill="#2563EB" height="0.7215" width="1" x="93" y="0.2785" /><rect key="94" fill="#2563EB" height="0.6158" width="1" x="94" y="0.3842" /><rect key="95" fill="#2563EB" height="0.8580" width="1" x="95" y="0.1420" /><rect key="96" fill="#2563EB" height="0.9560" width="1" x="96" y="0.0440" /><rect key="97" fill="#2563EB" height="0.9405" width="1" x="97" y="0.0595" /><rect key="98" fill="#2563EB" height="0.7966" width="1" x="98" y="0.2034" /><rect key="99" fill="#2563EB" height="0.4657" width="1" x="99" y="0.5343" />
</svg>