<svg xmlns="http://www.w3.org/2000/svg" preserveAspectRatio="none" viewBox="0 0 100 1">
<rect key="0" fill="#2563EB" height="0.5243" width="1" x="0" y="0.4757" /><rect key="1" fill="#2563EB" height="0.5140" width="1" x="1" y="0.4860" /><rect key="2" fill="#2563EB" height="0.6671" width="1" x="2" y="0.3329" /><rect key="3" fill="#2563EB" height="0.5741" width="1" x="3" y="0.4259" /><rect key="4" fill="#2563EB" height="0.5189" width="1" x="4" y="0.4811" /><rect key="5" fill="#2563EB" height="0.4955" width="1" x="5" y="0.5045" /><rect key="6" fill="#2563EB" height="0.5170" width="1" x="6" y="0.4830" /><rect key="7" fill="#2563EB" height="0.5887" width="1" x="7" y="0.4113" /><rect key="8" fill="#2563EB" height="0.5972" width="1" x="8" y="0.4028" /><rect key="9" fill="#2563EB" height="0.6666" width="1" x="9" y="0.3334" /><rect key="10" fill="#2563EB" height="0.4941" width="1" x="10" y="0.5059" /><rect key="11" fill="#2563EB" height="0.5798" width="1" x="11" y="0.4202" /><rect key="12" fill="#2563EB" height="0.7762" width="1" x="12" y="0.2238" /><rect key="13" fill="#2563EB" height="0.7032" width="1" x="13" y="0.2968" /><rect key="14" fill="#2563EB" height="0.7180" width="1" x="14" y="0.2820" /><rect key="15" fill="#2563EB" height="0.6808" width="1" x="15" y="0.3192" /><rect key="16" fill="#2563EB" height="0.7008" width="1" x="16" y="0.2992" /><rect key="17" fill="#2563EB" height="0.6511" width="1" x="17" y="0.3489" /><rect key="18" fill="#2563EB" height="0.7068" width="1" x="18" y="0.2932" /><rect key="19" fill="#2563EB" height="0.7737" width="1" x="19" y="0.2263" /><rect key="20" fill="#2563EB" height="0.8736" width="1" x="20" y="0.1264" /><rect key="21" fill="#2563EB" height="0.9552" width="1" x="21" y="0.0448" /><rect key="22" fill="#2563EB" height="0.7975" width="1" x="22" y="0.2025" /><rect key="23" fill="#2563EB" height="0.8416" width="1" x="23" y="0.1584" /><rect key="24" fill="#2563EB" height="0.6895" width="1" x="24" y="0.3105" /><rect key="25" fill="#2563EB" height="0.6974" width="1" x="25" y="0.3026" /><rect key="26" fill="#2563EB" height="0.8479" width="1" x="26" y="0.1521" /><rect key="27" fill="#2563EB" height="1.0000" width="1" x="27" y="0.0000" /><rect key="28" fill="#2563EB" height="0.9074" width="1" x="28" y="0.0926" /><rect key="29" fill="#2563EB" height="0.8325" width="1" x="29" y="0.1675" /><rect key="30" fill="#2563EB" height="0.8170" width="1" x="30" y="0.1830" /><rect key="31" fill="#2563EB" height="0.7727" width="1" x="31" y="0.2273" /><rect key="32" fill="#2563EB" height="0.8240" width="1" x="32" y="0.1760" /><rect key="33" fill="#2563EB" height="0.9703" width="1" x="33" y="0.0297" /><rect key="34" fill="#2563EB" height="0.9372" width="1" x="34" y="0.0628" /><rect key="35" fill="#2563EB" height="0.8933" width="1" x="35" y="0.1067" /><rect key="36" fill="#2563EB" height="0.8180" width="1" x="36" y="0.1820" /><rect key="37" fill="#2563EB" height="0.7434" width="1" x="37" y="0.2566" /><rect key="38" fill="#2563EB" height="0.7762" width="1" x="38" y="0.2238" /><rect key="39" fill="#2563EB" height="0.9103" width="1" x="39" y="0.0897" /><rect key="40" fill="#2563EB" height="0.8458" width="1" x="40" y="0.1542" /><rect key="41" fill="#2563EB" height="0.8230" width="1" x="41" y="0.1770" /><rect key="42" fill="#2563EB" height="0.8858" width="1" x="42" y="0.1142" /><rect key="43" fill="#2563EB" height="0.7587" width="1" x="43" y="0.2413" /><rect key="44" fill="#2563EB" height="0.7653" width="1" x="44" y="0.2347" /><rect key="45" fill="#2563EB" height="0.8951" width="1" x="45" y="0.1049" /><rect key="46" fill="#2563EB" height="0.9773" width="1" x="46" y="0.0227" /><rect key="47" fill="#2563EB" height="0.8825" width="1" x="47" y="0.1175" /><rect key="48" fill="#2563EB" height="0.8823" width="1" x="48" y="0.1177" /><rect key="49" fill="#2563EB" height="0.7604" width="1" x="49" y="0.2396" /><rect key="50" fill="#2563EB" height="0.7444" width="1" x="50" y="0.2556" /><rect key="51" fill="#2563EB" height="0.7487" width="1" x="51" y="0.2513" /><rect key="52" fill="#2563EB" height="0.7371" width="1" x="52" y="0.2629" /><rect key="53" fill="#2563EB" height="0.7964" width="1" x="53" y="0.2036" /><rect key="54" fill="#2563EB" height="0.5929" width="1" x="54" y="0.4071" /><rect key="55" fill="#2563EB" height="0.6119" width="1" x="55" y="0.3881" /><rect key="56" fill="#2563EB" height="0.6103" width="1" x="56" y="0.3897" /><rect key="57" fill="#2563EB" height="0.6100" width="1" x="57" y="0.3900" /><rect key="58" fill="#2563EB" height="0.6343" width="1" x="58" y="0.3657" /><rect key="59" fill="#2563EB" height="0.6400" width="1" x="59" y="0.3600" /><rect key="60" fill="#2563EB" height="0.4760" width="1" x="60" y="0.5240" /><rect key="61" fill="#2563EB" height="0.6861" width="1" x="61" y="0.3139" /><rect key="62" fill="#2563EB" height="0.6495" width="1" x="62" y="0.3505" /><rect key="63" fill="#2563EB" height="0.6299" width="1" x="63" y="0.3701" /><rect key="64" fill="#2563EB" height="0.4865" width="1" x="64" y="0.5135" /><rect key="65" fill="#2563EB" height="0.5034" width="1" x="65" y="0.4966" /><rect key="66" fill="#2563EB" height="0.4788" width="1" x="66" y="0.5212" /><rect key="67" fill="#2563EB" height="0.4867" width="1" x="67" y="0.5133" /><rect key="68" fill="#2563EB" height="0.4772" width="1" x="68" y="0.5228" /><rect key="69" fill="#2563EB" height="0.6914" width="1" x="69" y="0.3086" /><rect key="70" fill="#2563EB" height="0.6257" width="1" x="70" y="0.3743" /><rect key="71" fill="#2563EB" height="0.6597" width="1" x="71" y="0.3403" /><rect key="72" fill="#2563EB" height="0.4699" width="1" x="72" y="0.5301" /><rect key="73" fill="#2563EB" height="0.4172" width="1" x="73" y="0.5828" /><rect key="74" fill="#2563EB" height="0.4129" width="1" x="74" y="0.5871" /><rect key="75" fill="#2563EB" height="0.6681" width="1" x="75" y="0.3319" /><rect key="76" fill="#2563EB" height="0.4884" width="1" x="76" y="0.5116" /><rect key="77" fill="#2563EB" height="0.5682" width="1" x="77" y="0.4318" /><rect key="78" fill="#2563EB" height="0.6366" width="1" x="78" y="0.3634" /><rect key="79" fill="#2563EB" height="0.7082" width="1" x="79" y="0.2918" /><rect key="80" fill="#2563EB" height="0.6480" width="1" x="80" y="0.3520" /><rect key="81" fill="#2563EB" height="0.4918" width="1" x="81" y="0.5082" /><rect key="82" fill="#2563EB" height="0.6040" width="1" x="82" y="0.3960" /><rect key="83" fill="#2563EB" height="0.6425" width="1" x="83" y="0.3575" /><rect key="84" fill="#2563EB" height="0.6775" width="1" x="84" y="0.3225" /><rect key="85" fill="#2563EB" height="0.5656" width="1" x="85" y="0.4344" /><rect key="86" fill="#2563EB" height="0.5418" width="1" x="86" y="0.4582" /><rect key="87" fill="#2563EB" height="0.6816" width="1" x="87" y="0.3184" /><rect key="88" fill="#2563EB" height="0.6319" width="1" x="88" y="0.3681" /><rect key="89" fill="#2563EB" height="0.8962" width="1" x="89" y="0.1038" /><rect key="90" fill="#2563EB" height="0.5599" width="1" x="90" y="0.4401" /><rect key="91" fill="#2563EB" height="0.5025" width="1" x="91" y="0.4975" /><rect key="92" fill="#2563EB" height="0.3948" width="1" x="92" y="0.6052" /><rect key="93" fill="#2563EB" height="0.5883" width="1" x="93" y="0.4117" /><rect key="94" fill="#2563EB" height="0.7005" width="1" x="94" y="0.2995" /><rect key="95" fill="#2563EB" height="0.5397" width="1" x="95" y="0.4603" /><rect key="96" fill="#2563EB" height="0.6274" width="1" x="96" y="0.3726" /><rect key="97" fill="#2563EB" height="0.5501" width="1" x="97" y="0.4499" /><rect key="98" fill="#2563EB" height="0.5296" width="1" x="98" y="0.4704" /><rect key="99" fill="#2563EB" height="0.4050" width="1" x="99" y="0.5950" />
</svg>