<svg xmlns="http://www.w3.org/2000/svg" preserveAspectRatio="none" viewBox="0 0 100 1">
<rect key="0" fill="#2563EB" height="0.9141" width="1" x="0" y="0.0859" /><rect key="1" fill="#2563EB" height="0.8894" width="1" x="1" y="0.1106" /><rect key="2" fill="#2563EB" height="0.7940" width="1" x="2" y="0.2060" /><rect key="3" fill="#2563EB" height="0.8379" width="1" x="3" y="0.1621" /><rect key="4" fill="#2563EB" height="0.8173" width="1" x="4" y="0.1827" /><rect key="5" fill="#2563EB" height="0.7487" width="1" x="5" y="0.2513" /><rect key="6" fill="#2563EB" height="0.8123" width="1" x="6" y="0.1877" /><rect key="7" fill="#2563EB" height="0.8444" width="1" x="7" y="0.1556" /><rect key="8" fill="#2563EB" height="0.7276" width="1" x="8" y="0.2724" /><rect key="9" fill="#2563EB" height="0.7220" width="1" x="9" y="0.2780" /><rect key="10" fill="#2563EB" height="0.8220" width="1" x="10" y="0.1780" /><rect key="11" fill="#2563EB" height="0.8660" width="1" x="11" y="0.1340" /><rect key="12" fill="#2563EB" height="0.7521" width="1" x="12" y="0.2479" /><rect key="13" fill="#2563EB" height="0.6851" width="1" x="13" y="0.3149" /><rect key="14" fill="#2563EB" height="0.8159" width="1" x="14" y="0.1841" /><rect key="15" fill="#2563EB" height="0.8346" width="1" x="15" y="0.1654" /><rect key="16" fill="#2563EB" height="0.8626" width="1" x="16" y="0.1374" /><rect key="17" fill="#2563EB" height="0.8876" width="1" x="17" y="0.1124" /><rect key="18" fill="#2563EB" height="0.7918" width="1" x="18" y="0.2082" /><rect key="19" fill="#2563EB" height="0.8017" width="1" x="19" y="0.1983" /><rect key="20" fill="#2563EB" height="0.8575" width="1" x="20" y="0.1425" /><rect key="21" fill="#2563EB" height="0.7995" width="1" x="21" y="0.2005" /><rect key="22" fill="#2563EB" height="0.7418" width="1" x="22" y="0.2582" /><rect key="23" fill="#2563EB" height="0.8134" width="1" x="23" y="0.1866" /><rect key="24" fill="#2563EB" height="0.8441" width="1" x="24" y="0.1559" /><rect key="25" fill="#2563EB" height="0.7905" width="1" x="25" y="0.2095" /><rect key="26" fill="#2563EB" height="0.8730" width="1" x="26" y="0.1270" /><rect key="27" fill="#2563EB" height="0.8664" width="1" x="27" y="0.1336" /><rect key="28" fill="#2563EB" height="0.8035" width="1" x="28" y="0.1965" /><rect key="29" fill="#2563EB" height="0.7263" width="1" x="29" y="0.2737" /><rect key="30" fill="#2563EB" height="0.6994" width="1" x="30" y="0.3006" /><rect key="31" fill="#2563EB" height="0.8100" width="1" x="31" y="0.1900" /><rect key="32" fill="#2563EB" height="0.7960" width="1" x="32" y="0.2040" /><rect key="33" fill="#2563EB" height="0.7997" width="1" x="33" y="0.2003" /><rect key="34" fill="#2563EB" height="0.7205" width="1" x="34" y="0.2795" /><rect key="35" fill="#2563EB" height="0.7253" width="1" x="35" y="0.2747" /><rect key="36" fill="#2563EB" height="0.8114" width="1" x="36" y="0.1886" /><rect key="37" fill="#2563EB" height="0.7970" width="1" x="37" y="0.2030" /><rect key="38" fill="#2563EB" height="0.8092" width="1" x="38" y="0.1908" /><rect key="39" fill="#2563EB" height="0.7772" width="1" x="39" y="0.2228" /><rect key="40" fill="#2563EB" height="0.9093" width="1" x="40" y="0.0907" /><rect key="41" fill="#2563EB" height="0.8503" width="1" x="41" y="0.1497" /><rect key="42" fill="#2563EB" height="0.8707" width="1" x="42" y="0.1293" /><rect key="43" fill="#2563EB" height="0.7782" width="1" x="43" y="0.2218" /><rect key="44" fill="#2563EB" height="0.8397" width="1" x="44" y="0.1603" /><rect key="45" fill="#2563EB" height="0.7488" width="1" x="45" y="0.2512" /><rect key="46" fill="#2563EB" height="0.8082" width="1" x="46" y="0.1918" /><rect key="47" fill="#2563EB" height="0.7937" width="1" x="47" y="0.2063" /><rect key="48" fill="#2563EB" height="0.8525" width="1" x="48" y="0.1475" /><rect key="49" fill="#2563EB" height="0.8085" width="1" x="49" y="0.1915" /><rect key="50" fill="#2563EB" height="0.7595" width="1" x="50" y="0.2405" /><rect key="51" fill="#2563EB" height="0.6806" width="1" x="51" y="0.3194" /><rect key="52" fill="#2563EB" height="0.7578" width="1" x="52" y="0.2422" /><rect key="53" fill="#2563EB" height="0.8335" width="1" x="53" y="0.1665" /><rect key="54" fill="#2563EB" height="0.7577" width="1" x="54" y="0.2423" /><rect key="55" fill="#2563EB" height="0.7909" width="1" x="55" y="0.2091" /><rect key="56" fill="#2563EB" height="0.7364" width="1" x="56" y="0.2636" /><rect key="57" fill="#2563EB" height="0.7773" width="1" x="57" y="0.2227" /><rect key="58" fill="#2563EB" height="0.7206" width="1" x="58" y="0.2794" /><rect key="59" fill="#2563EB" height="0.8648" width="1" x="59" y="0.1352" /><rect key="60" fill="#2563EB" height="0.7983" width="1" x="60" y="0.2017" /><rect key="61" fill="#2563EB" height="0.8241" width="1" x="61" y="0.1759" /><rect key="62" fill="#2563EB" height="0.8202" width="1" x="62" y="0.1798" /><rect key="63" fill="#2563EB" height="0.8165" width="1" x="63" y="0.1835" /><rect key="64" fill="#2563EB" height="0.8602" width="1" x="64" y="0.1398" /><rect key="65" fill="#2563EB" height="0.9073" width="1" x="65" y="0.0927" /><rect key="66" fill="#2563EB" height="0.8163" width="1" x="66" y="0.1837" /><rect key="67" fill="#2563EB" height="0.9161" width="1" x="67" y="0.0839" /><rect key="68" fill="#2563EB" height="0.9172" width="1" x="68" y="0.0828" /><rect key="69" fill="#2563EB" height="0.9355" width="1" x="69" y="0.0645" /><rect key="70" fill="#2563EB" height="0.7854" width="1" x="70" y="0.2146" /><rect key="71" fill="#2563EB" height="0.8455" width="1" x="71" y="0.1545" /><rect key="72" fill="#2563EB" height="0.9198" width="1" x="72" y="0.0802" /><rect key="73" fill="#2563EB" height="0.7815" width="1" x="73" y="0.2185" /><rect key="74" fill="#2563EB" height="0.8154" width="1" x="74" y="0.1846" /><rect key="75" fill="#2563EB" height="0.8419" width="1" x="75" y="0.1581" /><rect key="76" fill="#2563EB" height="0.8078" width="1" x="76" y="0.1922" /><rect key="77" fill="#2563EB" height="0.7438" width="1" x="77" y="0.2562" /><rect key="78" fill="#2563EB" height="0.8415" width="1" x="78" y="0.1585" /><rect key="79" fill="#2563EB" height="0.8835" width="1" x="79" y="0.1165" /><rect key="80" fill="#2563EB" height="0.8545" width="1" x="80" y="0.1455" /><rect key="81" fill="#2563EB" height="0.9328" width="1" x="81" y="0.0672" /><rect key="82" fill="#2563EB" height="0.7905" width="1" x="82" y="0.2095" /><rect key="83" fill="#2563EB" height="0.7690" width="1" x="83" y="0.2310" /><rect key="84" fill="#2563EB" height="0.7674" width="1" x="84" y="0.2326" /><rect key="85" fill="#2563EB" height="0.8607" width="1" x="85" y="0.1393" /><rect key="86" fill="#2563EB" height="0.7936" width="1" x="86" y="0.2064" /><rect key="87" fill="#2563EB" height="0.7616" width="1" x="87" y="0.2384" /><rect key="88" fill="#2563EB" height="1.0000" width="1" x="88" y="0.0000" /><rect key="89" fill="#2563EB" height="0.8715" width="1" x="89" y="0.1285" /><rect key="90" fill="#2563EB" height="0.7449" width="1" x="90" y="0.2551" /><rect key="91" fill="#2563EB" height="0.8748" width="1" x="91" y="0.1252" /><rect key="92" fill="#2563EB" height="0.7928" width="1" x="92" y="0.2072" /><rect key="93" fill="#2563EB" height="0.7924" width="1" x="93" y="0.2076" /><rect key="94" fill="#2563EB" height="0.7994" width="1" x="94" y="0.2006" /><rect key="95" fill="#2563EB" height="0.7889" width="1" x="95" y="0.2111" /><rect key="96" fill="#2563EB" height="0.8224" width="1" x="96" y="0.1776" /><rect key="97" fill="#2563EB" height="0.5172" width="1" x="97" y="0.4828" /><rect key="98" fill="#2563EB" height="0.4207" width="1" x="98" y="0.5793" /><rect key="99" fill="#2563EB" height="0.4254" width="1" x="99" y="0.5746" />
</svg>