<svg xmlns="http://www.w3.org/2000/svg" preserveAspectRatio="none" viewBox="0 0 100 1">
<rect key="0" fill="#2563EB" height="0.4721" width="1" x="0" y="0.5279" /><rect key="1" fill="#2563EB" height="0.5129" width="1" x="1" y="0.4871" /><rect key="2" fill="#2563EB" height="0.6989" width="1" x="2" y="0.3011" /><rect key="3" fill="#2563EB" height="0.6894" width="1" x="3" y="0.3106" /><rect key="4" fill="#2563EB" height="0.5968" width="1" x="4" y="0.4032" /><rect key="5" fill="#2563EB" height="0.4750" width="1" x="5" y="0.5250" /><rect key="6" fill="#2563EB" height="0.6235" width="1" x="6" y="0.3765" /><rect key="7" fill="#2563EB" height="0.5892" width="1" x="7" y="0.4108" /><rect key="8" fill="#2563EB" height="0.5479" width="1" x="8" y="0.4521" /><rect key="9" fill="#2563EB" height="0.5628" width="1" x="9" y="0.4372" /><rect key="10" fill="#2563EB" height="0.5830" width="1" x="10" y="0.4170" /><rect key="11" fill="#2563EB" height="0.6167" width="1" x="11" y="0.3833" /><rect key="12" fill="#2563EB" height="0.5086" width="1" x="12" y="0.4914" /><rect key="13" fill="#2563EB" height="0.6196" width="1" x="13" y="0.3804" /><rect key="14" fill="#2563EB" height="0.5547" width="1" x="14" y="0.4453" /><rect key="15" fill="#2563EB" height="0.6151" width="1" x="15" y="0.3849" /><rect key="16" fill="#2563EB" height="0.5027" width="1" x="16" y="0.4973" /><rect key="17" fill="#2563EB" height="0.7854" width="1" x="17" y="0.2146" /><rect key="18" fill="#2563EB" height="0.8728" width="1" x="18" y="0.1272" /><rect key="19" fill="#2563EB" height="0.8642" width="1" x="19" y="0.1358" /><rect key="20" fill="#2563EB" height="0.8692" width="1" x="20" y="0.1308" /><rect key="21" fill="#2563EB" height="0.8764" width="1" x="21" y="0.1236" /><rect key="22" fill="#2563EB" height="0.8527" width="1" x="22" y="0.1473" /><rect key="23" fill="#2563EB" height="0.7753" width="1" x="23" y="0.2247" /><rect key="24" fill="#2563EB" height="0.8341" width="1" x="24" y="0.1659" /><rect key="25" fill="#2563EB" height="0.9246" width="1" x="25" y="0.0754" /><rect key="26" fill="#2563EB" height="0.8394" width="1" x="26" y="0.1606" /><rect key="27" fill="#2563EB" height="0.8294" width="1" x="27" y="0.1706" /><rect key="28" fill="#2563EB" height="0.9418" width="1" x="28" y="0.0582" /><rect key="29" fill="#2563EB" height="0.8944" width="1" x="29" y="0.1056" /><rect key="30" fill="#2563EB" height="0.8790" width="1" x="30" y="0.1210" /><rect key="31" fill="#2563EB" height="0.9378" width="1" x="31" y="0.0622" /><rect key="32" fill="#2563EB" height="0.9413" width="1" x="32" y="0.0587" /><rect key="33" fill="#2563EB" height="0.9508" width="1" x="33" y="0.0492" /><rect key="34" fill="#2563EB" height="0.9106" width="1" x="34" y="0.0894" /><rect key="35" fill="#2563EB" height="0.9105" width="1" x="35" y="0.0895" /><rect key="36" fill="#2563EB" height="0.9160" width="1" x="36" y="0.0840" /><rect key="37" fill="#2563EB" height="0.9191" width="1" x="37" y="0.0809" /><rect key="38" fill="#2563EB" height="0.8462" width="1" x="38" y="0.1538" /><rect key="39" fill="#2563EB" height="0.9543" width="1" x="39" y="0.0457" /><rect key="40" fill="#2563EB" height="0.9178" width="1" x="40" y="0.0822" /><rect key="41" fill="#2563EB" height="0.8882" width="1" x="41" y="0.1118" /><rect key="42" fill="#2563EB" height="0.9373" width="1" x="42" y="0.0627" /><rect key="43" fill="#2563EB" height="0.8935" width="1" x="43" y="0.1065" /><rect key="44" fill="#2563EB" height="0.9879" width="1" x="44" y="0.0121" /><rect key="45" fill="#2563EB" height="0.9723" width="1" x="45" y="0.0277" /><rect key="46" fill="#2563EB" height="0.9023" width="1" x="46" y="0.0977" /><rect key="47" fill="#2563EB" height="0.8863" width="1" x="47" y="0.1137" /><rect key="48" fill="#2563EB" height="0.8795" width="1" x="48" y="0.1205" /><rect key="49" fill="#2563EB" height="0.9131" width="1" x="49" y="0.0869" /><rect key="50" fill="#2563EB" height="0.9036" width="1" x="50" y="0.0964" /><rect key="51" fill="#2563EB" height="0.9299" width="1" x="51" y="0.0701" /><rect key="52" fill="#2563EB" height="0.8685" width="1" x="52" y="0.1315" /><rect key="53" fill="#2563EB" height="0.9668" width="1" x="53" y="0.0332" /><rect key="54" fill="#2563EB" height="0.9224" width="1" x="54" y="0.0776" /><rect key="55" fill="#2563EB" height="0.8782" width="1" x="55" y="0.1218" /><rect key="56" fill="#2563EB" height="0.9982" width="1" x="56" y="0.0018" /><rect key="57" fill="#2563EB" height="0.9030" width="1" x="57" y="0.0970" /><rect key="58" fill="#2563EB" height="0.9438" width="1" x="58" y="0.0562" /><rect key="59" fill="#2563EB" height="0.8757" width="1" x="59" y="0.1243" /><rect key="60" fill="#2563EB" height="0.9921" width="1" x="60" y="0.0079" /><rect key="61" fill="#2563EB" height="0.8905" width="1" x="61" y="0.1095" /><rect key="62" fill="#2563EB" height="0.8835" width="1" x="62" y="0.1165" /><rect key="63" fill="#2563EB" height="0.9297" width="1" x="63" y="0.0703" /><rect key="64" fill="#2563EB" height="0.9094" width="1" x="64" y="0.0906" /><rect key="65" fill="#2563EB" height="0.9594" width="1" x="65" y="0.0406" /><rect key="66" fill="#2563EB" height="0.8602" width="1" x="66" y="0.1398" /><rect key="67" fill="#2563EB" height="0.9949" width="1" x="67" y="0.0051" /><rect key="68" fill="#2563EB" height="0.9275" width="1" x="68" y="0.0725" /><rect key="69" fill="#2563EB" height="0.9204" width="1" x="69" y="0.0796" /><rect key="70" fill="#2563EB" height="0.9600" width="1" x="70" y="0.0400" /><rect key="71" fill="#2563EB" height="0.9708" width="1" x="71" y="0.0292" /><rect key="72" fill="#2563EB" height="0.9616" width="1" x="72" y="0.0384" /><rect key="73" fill="#2563EB" height="0.9789" width="1" x="73" y="0.0211" /><rect key="74" fill="#2563EB" height="0.9787" width="1" x="74" y="0.0213" /><rect key="75" fill="#2563EB" height="0.9200" width="1" x="75" y="0.0800" /><rect key="76" fill="#2563EB" height="0.9228" width="1" x="76" y="0.0772" /><rect key="77" fill="#2563EB" height="0.9229" width="1" x="77" y="0.0771" /><rect key="78" fill="#2563EB" height="0.9236" width="1" x="78" y="0.0764" /><rect key="79" fill="#2563EB" height="0.9952" width="1" x="79" y="0.0048" /><rect key="80" fill="#2563EB" height="0.9228" width="1" x="80" y="0.0772" /><rect key="81" fill="#2563EB" height="0.9346" width="1" x="81" y="0.0654" /><rect key="82" fill="#2563EB" height="0.9416" width="1" x="82" y="0.0584" /><rect key="83" fill="#2563EB" height="1.0000" width="1" x="83" y="0.0000" /><rect key="84" fill="#2563EB" height="0.8903" width="1" x="84" y="0.1097" /><rect key="85" fill="#2563EB" height="0.9681" width="1" x="85" y="0.0319" /><rect key="86" fill="#2563EB" height="0.9878" width="1" x="86" y="0.0122" /><rect key="87" fill="#2563EB" height="0.9032" width="1" x="87" y="0.0968" /><rect key="88" fill="#2563EB" height="0.9324" width="1" x="88" y="0.0676" /><rect key="89" fill="#2563EB" height="0.9616" width="1" x="89" y="0.0384" /><rect key="90" fill="#2563EB" height="0.9567" width="1" x="90" y="0.0433" /><rect key="91" fill="#2563EB" height="0.8911" width="1" x="91" y="0.1089" /><rect key="92" fill="#2563EB" height="0.9611" width="1" x="92" y="0.0389" /><rect key="93" fill="#2563EB" height="0.9443" width="1" x="93" y="0.0557" /><rect key="94" fill="#2563EB" height="0.9366" width="1" x="94" y="0.0634" /><rect key="95" fill="#2563EB" height="0.9709" width="1" x="95" y="0.0291" /><rect key="96" fill="#2563EB" height="0.9762" width="1" x="96" y="0.0238" /><rect key="97" fill="#2563EB" height="0.7519" width="1" x="97" y="0.2481" /><rect key="98" fill="#2563EB" height="0.5918" width="1" x="98" y="0.4082" /><rect key="99" fill="#2563EB" height="0.5828" width="1" x="99" y="0.4172" />
</svg>